<svg id="Layer_1" data-name="Layer 1" xmlns="http://www.w3.org/2000/svg" xmlns:xlink="http://www.w3.org/1999/xlink" viewBox="0 0 4500 2500"><defs><style>.cls-1{fill:none;}.cls-2{fill:#aed3f0;}.cls-13,.cls-3,.cls-4{fill:#fff;}.cls-3{fill-opacity:0.45;}.cls-4{fill-opacity:0.55;}.cls-5{clip-path:url(#clip-path);}.cls-6{fill:#bcdbf3;}.cls-7,.cls-8{fill:#d4e8f7;}.cls-12,.cls-13,.cls-14,.cls-15,.cls-17,.cls-19,.cls-20,.cls-21,.cls-22,.cls-23,.cls-24,.cls-25,.cls-26,.cls-27,.cls-28,.cls-29,.cls-30,.cls-31,.cls-32,.cls-33,.cls-34,.cls-35,.cls-36,.cls-37,.cls-38,.cls-39,.cls-40,.cls-41,.cls-42,.cls-43,.cls-44,.cls-45,.cls-46,.cls-47,.cls-48,.cls-49,.cls-50,.cls-51,.cls-7{fill-rule:evenodd;}.cls-9{fill:#3fa092;}.cls-10{fill:#0e847c;}.cls-11{fill:#90c3eb;}.cls-12{fill-opacity:0.2;}.cls-14,.cls-16{fill:#124f7b;}.cls-15{fill:#cfe8ff;}.cls-17,.cls-18{fill:#ec6198;}.cls-19{fill:#76b5e6;}.cls-20{fill:url(#linear-gradient);}.cls-21{fill:#edd573;}.cls-22{fill:#e3bf28;}.cls-23{fill:url(#linear-gradient-2);}.cls-24{fill:#44ae9e;}.cls-25{fill:#2b6d63;}.cls-26{fill:url(#linear-gradient-3);}.cls-27{fill:#e52671;}.cls-28{fill:url(#linear-gradient-4);}.cls-29{fill:#14385a;}.cls-30{fill:#4087d5;}.cls-31{fill:#ffc787;}.cls-32{fill:url(#linear-gradient-5);}.cls-33{fill:#ffab65;}.cls-34{fill:url(#linear-gradient-6);}.cls-35{fill:url(#linear-gradient-7);}.cls-36{fill:#5e9adc;}.cls-37{fill:url(#linear-gradient-8);}.cls-38{fill:#224e77;}.cls-39{fill:url(#linear-gradient-9);}.cls-40{fill:url(#linear-gradient-10);}.cls-41{fill:url(#linear-gradient-11);}.cls-42{fill:url(#linear-gradient-12);}.cls-43{fill:url(#linear-gradient-13);}.cls-44{fill:url(#linear-gradient-14);}.cls-45{fill:url(#linear-gradient-15);}.cls-46{fill:url(#linear-gradient-16);}.cls-47{fill:url(#linear-gradient-17);}.cls-48{fill:#31251e;}.cls-49{fill:url(#linear-gradient-18);}.cls-50{fill:url(#linear-gradient-19);}.cls-51{fill:url(#linear-gradient-20);}</style><clipPath id="clip-path"><rect class="cls-1" x="-1.44" y="0.96" width="4501.44" height="2500.15"/></clipPath><linearGradient id="linear-gradient" x1="1292.51" y1="1791.94" x2="1293.69" y2="1792.06" gradientTransform="matrix(-1.06, -323.75, -459.38, 71.82, 828232.16, 291300.31)" gradientUnits="userSpaceOnUse"><stop offset="0" stop-color="#2371a1" stop-opacity="0"/><stop offset="1" stop-color="#2371a1"/></linearGradient><linearGradient id="linear-gradient-2" x1="1292.67" y1="1791.94" x2="1293.85" y2="1792.06" gradientTransform="matrix(-1.06, -323.75, -459.38, 71.82, 828239.44, 291020.12)" xlink:href="#linear-gradient"/><linearGradient id="linear-gradient-3" x1="1292.84" y1="1791.93" x2="1294.03" y2="1792.06" gradientTransform="matrix(-1.06, -323.75, -459.38, 71.82, 828247.54, 290710.87)" xlink:href="#linear-gradient"/><linearGradient id="linear-gradient-4" x1="1290.47" y1="1790.38" x2="1291.66" y2="1790.28" gradientTransform="matrix(-375.44, -1503.82, -2174.8, 259.61, 4380824.3, 1477859.79)" xlink:href="#linear-gradient"/><linearGradient id="linear-gradient-5" x1="1290.28" y1="1784.53" x2="1291.47" y2="1784.53" gradientTransform="matrix(-133.94, 172.33, 172.33, 133.94, -131934.42, -459789.76)" gradientUnits="userSpaceOnUse"><stop offset="0" stop-color="#e1705a" stop-opacity="0"/><stop offset="1" stop-color="#e1705a"/></linearGradient><linearGradient id="linear-gradient-6" x1="1271.37" y1="1797.75" x2="1272.55" y2="1797.75" gradientTransform="matrix(50.19, 0, 0, -103.55, -60754.72, 186951.19)" xlink:href="#linear-gradient-5"/><linearGradient id="linear-gradient-7" x1="1288.77" y1="1798.01" x2="1289.96" y2="1798.01" gradientTransform="matrix(117.34, -100.14, -100.14, -117.34, 31879.68, 340818.84)" xlink:href="#linear-gradient-5"/><linearGradient id="linear-gradient-8" x1="1290.33" y1="1794.04" x2="1291.52" y2="1794.04" gradientTransform="matrix(158.77, -293.6, -293.6, -158.77, 323576.43, 664864.94)" xlink:href="#linear-gradient-5"/><linearGradient id="linear-gradient-9" x1="1291.01" y1="1789.65" x2="1292.19" y2="1789.65" gradientTransform="matrix(-1124.15, -42.06, -42.06, 1124.15, 1528458.95, -1955419.11)" gradientUnits="userSpaceOnUse"><stop offset="0" stop-color="#001930" stop-opacity="0"/><stop offset="1" stop-color="#001930"/></linearGradient><linearGradient id="linear-gradient-10" x1="1297.66" y1="1787.81" x2="1298.85" y2="1787.84" gradientTransform="matrix(-141.99, -9.58, -5.31, 255.95, 195887.25, -443640.69)" xlink:href="#linear-gradient-9"/><linearGradient id="linear-gradient-11" x1="1315.6" y1="1784.61" x2="1316.78" y2="1784.64" gradientTransform="matrix(-42.44, -4.04, -1.59, 108.09, 60792.2, -186117.26)" xlink:href="#linear-gradient-9"/><linearGradient id="linear-gradient-12" x1="1289.38" y1="1789.65" x2="1290.56" y2="1789.65" gradientTransform="matrix(1384.27, 1500.47, 1500.47, -1384.27, -4468557.05, 544415.11)" xlink:href="#linear-gradient-9"/><linearGradient id="linear-gradient-13" x1="1287.85" y1="1790.25" x2="1289.03" y2="1790.25" gradientTransform="matrix(547.95, 243.11, 243.11, -547.95, -1139085.59, 669712.19)" gradientUnits="userSpaceOnUse"><stop offset="0" stop-color="#001930" stop-opacity="0"/><stop offset="0.42" stop-color="#001930" stop-opacity="0.32"/><stop offset="1" stop-color="#001930"/></linearGradient><linearGradient id="linear-gradient-14" x1="1288.19" y1="1792.81" x2="1289.37" y2="1792.81" gradientTransform="matrix(369.26, -164.33, -164.33, -369.26, -179015.9, 875492.88)" xlink:href="#linear-gradient-9"/><linearGradient id="linear-gradient-15" x1="1286.15" y1="1790.02" x2="1287.33" y2="1790.02" gradientTransform="matrix(249.36, 193.99, 193.99, -249.36, -665451.05, 198471.08)" xlink:href="#linear-gradient-9"/><linearGradient id="linear-gradient-16" x1="1288.87" y1="1787.79" x2="1290.05" y2="1787.79" gradientTransform="matrix(-64.33, 481.01, 481.01, 64.33, -774322.56, -733419.38)" xlink:href="#linear-gradient-9"/><linearGradient id="linear-gradient-17" x1="1286.34" y1="1768.72" x2="1287.52" y2="1768.14" gradientTransform="matrix(-6.41, 106.32, 47.92, 14.22, -73873.31, -160426.08)" xlink:href="#linear-gradient-9"/><linearGradient id="linear-gradient-18" x1="1288.29" y1="1796.21" x2="1289.48" y2="1796.21" gradientTransform="matrix(172.7, -138.9, -138.9, -172.7, 28747.27, 489914.61)" gradientUnits="userSpaceOnUse"><stop offset="0" stop-color="#1c1511" stop-opacity="0"/><stop offset="1" stop-color="#1c1511"/></linearGradient><linearGradient id="linear-gradient-19" x1="1288.45" y1="1790.87" x2="1289.63" y2="1790.87" gradientTransform="matrix(766.11, 35.09, 35.09, -766.11, -1048324.56, 1327722.94)" gradientUnits="userSpaceOnUse"><stop offset="0" stop-color="#fcd7c2" stop-opacity="0"/><stop offset="1" stop-color="#fcd7c2"/></linearGradient><linearGradient id="linear-gradient-20" x1="1285.87" y1="1788.27" x2="1287.05" y2="1788.27" gradientTransform="matrix(158.43, 260.3, 260.3, -158.43, -667352.59, -50530.21)" gradientUnits="userSpaceOnUse"><stop offset="0" stop-color="#5e4c42"/><stop offset="1" stop-color="#372216"/></linearGradient></defs><g id="c49"><rect class="cls-2" x="-1.44" y="0.96" width="4501.44" height="2500.15"/><rect class="cls-3" x="840.49" y="-169.25" width="17.45" height="2691.69"/><rect class="cls-3" x="678.62" y="-169.25" width="17.45" height="2691.69"/><rect class="cls-3" x="516.75" y="-169.25" width="17.45" height="2691.69"/><rect class="cls-3" x="354.88" y="-169.25" width="17.45" height="2691.69"/><rect class="cls-3" x="193.02" y="-169.25" width="17.45" height="2691.69"/><rect class="cls-3" x="31.15" y="-169.25" width="17.45" height="2691.69"/><rect class="cls-4" x="-317.3" y="9" width="1352.68" height="14.94"/><rect class="cls-4" x="-317.3" y="184.72" width="1352.68" height="14.94"/><rect class="cls-4" x="-317.3" y="360.45" width="1352.68" height="14.94"/><rect class="cls-4" x="-317.3" y="536.17" width="1352.68" height="14.94"/><rect class="cls-4" x="-317.3" y="711.89" width="1352.68" height="14.94"/><rect class="cls-4" x="-317.3" y="887.61" width="1352.68" height="14.94"/><rect class="cls-4" x="-317.3" y="1063.34" width="1352.68" height="14.94"/><rect class="cls-4" x="-317.3" y="1239.06" width="1352.68" height="14.94"/><rect class="cls-4" x="-317.3" y="1414.78" width="1352.68" height="14.94"/><rect class="cls-4" x="-317.3" y="1590.51" width="1352.68" height="14.94"/><rect class="cls-4" x="-317.3" y="1766.23" width="1352.68" height="14.94"/><rect class="cls-4" x="-317.3" y="1941.95" width="1352.68" height="14.94"/><rect class="cls-4" x="-317.3" y="2117.68" width="1352.68" height="14.94"/><rect class="cls-4" x="-317.3" y="2293.4" width="1352.68" height="14.94"/><rect class="cls-1" x="-1.44" y="0.96" width="4501.44" height="2500.15"/><g class="cls-5"><rect class="cls-6" x="1281.7" y="-197.19" width="3477.54" height="2858.93"/><path class="cls-7" d="M1459.05-100.19l14.07,546.6L4369.06-309.71,3364.71-587Z"/><rect class="cls-8" x="983.27" y="-197.19" width="298.42" height="2858.93"/><path class="cls-9" d="M276.87,1828.26s65,100.14-49.07,152.41-317.86-54.81-444.24,89c31.6-199.93,106.26-284.44,221.16-326.67,139-51.09,314.84-2.06,272.15,85.23"/><path class="cls-10" d="M181.63,1814.32C100.29,1832.44,62.16,1919.69,67,1993.68c16.11,1,32,1.93,47.35,2.42-6.83-65.2,12.77-145.32,67.29-181.78"/><path class="cls-10" d="M67.9,1814.32c-14.75-37-41-51-69.75-68.77a333.91,333.91,0,0,0-57.52,28.54c42.73.26,87.33,20.2,127.27,40.23"/><path class="cls-10" d="M523,2526.24c7.56-45.08,7.06-291.29,1.93-337.62a557.7,557.7,0,0,0-33-136.42c-16.65-43.7-39.3-85.91-66.8-123.14-14.42-18.17-31.85-33.86-50.6-47.64a304.31,304.31,0,0,0-60.79-34.53c-42.9-18.84-89.42-29.27-136.29-32.66a444.93,444.93,0,0,0-140.19,12c-45.69,11.4-89.67,30.91-127.62,59.17a302.51,302.51,0,0,0-51.18,49,297.07,297.07,0,0,0-37,60.58,297.54,297.54,0,0,1,36.12-61.33,303.59,303.59,0,0,1,50.67-50.09c37.76-29.13,81.84-49.59,127.86-61.9A451.6,451.6,0,0,1,178,1807.11c47.65,2.65,95.22,12.45,139.56,31a314.66,314.66,0,0,1,63.26,34.56c19.67,14,38.12,30,53.58,48.82,29.53,38.62,52.87,80.68,70.87,125.47a572.39,572.39,0,0,1,36.17,139.57c6,48,7.58,294.35.23,343.3Z"/><path class="cls-9" d="M630,1881.74s-29.65,115.73,95.12,128.66,283.67-153.92,449.28-58.18c-93.71-179.3-191.4-235.42-313.73-238.56-148-3.81-299,99.07-230.67,168.08"/><path class="cls-10" d="M1006.21,1852.35c26.49-26.57,53-29.92,82.7-29.54a393.07,393.07,0,0,0-33.76-34.33c-26.41,11.89-48.94,31.1-48.94,63.87"/><path class="cls-10" d="M684,1861.85c15.85,55.62,44.86,98,54,149.25a176.46,176.46,0,0,0,31.75-2.84c5-63-58.12-100.27-85.73-146.41"/><path class="cls-10" d="M818.28,1842.83c13.79-71.21,88.85-106.47,157-105.83-32.94-14-67.55-21-104.37-22.88-54.26,18.12-94.59,67.63-109.41,130.94,32.68,41.24,64.91,89.53,72.42,144.9,18.34-6.74,37.12-14.5,56.31-22.3-7.84-49.73-36.31-92.83-72-124.83"/><path class="cls-10" d="M854.56,1838.88c57.67,14.46,82.38,60.39,86.77,108.9,16.43-5.9,33.07-11.27,49.91-15.51-21.77-55.61-45.25-111.62-136.68-93.39"/><path class="cls-10" d="M412.27,2308.93c-.1-45.68,4.47-90.3,12.67-134.72,8.34-44.25,20.76-88,39.39-129.25s43.82-80.07,77.75-110.58c16.84-15.3,35.92-28.08,55.77-38.66A411.68,411.68,0,0,1,659.68,1869c42.35-14.78,86.33-24,130.61-29.44a719,719,0,0,1,133.54-3.86c44.42,3,88.82,10.1,131,24.65,21,7.31,41.53,16.58,60,29.1s34.8,28.57,45,48.46c-10.56-19.71-27.18-35.4-45.66-47.46s-39.08-21-60.08-27.85c-42.15-13.7-86.39-20-130.53-22.15a713.27,713.27,0,0,0-132.35,6.17c-43.74,6.16-87,16.09-128.35,31.32s-81.08,35.52-112.77,65.21c-31.87,29.69-55.55,67.44-72.78,107.6s-28.67,83.05-36,126.4a713.19,713.19,0,0,0-10.06,131.17Z"/><path class="cls-9" d="M409.17,1658.24s12.47,84.79-118.75,76.63c-195-12.14-136-269.88-179.24-395.83S-43.46,1189.32-43.46,1189.32,296.75,1225,421.64,1393.7s82.37,289.87-12.47,264.54"/><path class="cls-10" d="M305.17,1295.66c-11.51-6.57-23.3-12.78-35.28-18.61-11.72,20-21.72,65.37.53,121.92-10.53-62.22,17.87-91.62,34.75-103.31"/><path class="cls-10" d="M135.81,1519.38c1.93,19.42,4.3,38.68,7.6,57.26,35.39-13.89,125.7-37.78,241.78,17.45,7.74-97.46,41-155.62,54.1-175.11-5.51-8.31-11.3-16.72-17.65-25.29a281.68,281.68,0,0,0-21.56-25.49c-20.94,22.38-66,79.3-54.95,145.5-66.62-20.94-167.43-19.28-209.32,5.68"/><path class="cls-10" d="M437.73,2526.15c9.36-47.92,15.18-295.6,19.3-344.73s5.69-98.7,5.19-148.12c-1-98.85-11.89-197.7-34.44-294a1068.77,1068.77,0,0,0-44.94-141.2c-18.24-46-41.27-89.94-67.29-132l-20.34-31-22.3-29.64c-7.17-10.12-15.5-19.26-23.62-28.61-8.31-9.16-15.81-19.09-24.89-27.52l-26.33-26.19c-8.94-8.55-18.66-16.26-27.95-24.43L156,1286.59c-4.84-3.84-9.93-7.37-14.89-11.09l-29.94-22L141.47,1275c5,3.63,10.17,7.09,15.09,10.87l14.31,11.88c9.44,8,19.3,15.61,28.41,24l26.81,25.85c9.25,8.32,16.94,18.15,25.42,27.21,8.29,9.25,16.81,18.32,24.18,28.36l22.9,29.44,21,30.87c26.83,41.88,50.75,85.79,69.86,131.82A1074.49,1074.49,0,0,1,437,1737c24.29,96.74,36.89,196.29,39.47,296q1.95,74.8-2.87,149.61c-3.41,49.87-8.39,297.61-17.27,347.33Z"/><path class="cls-9" d="M564.76,1779.92s-12.47,84.78,118.75,76.63c195-12.14,136-269.89,179.23-395.84S1017.39,1311,1017.39,1311s-340.21,35.65-465.1,204.38-82.38,289.89,12.47,264.55"/><path class="cls-10" d="M850.46,1514.47c2.93-19.53,6.77-37.72,12.29-53.76.69-2,1.45-3.93,2.18-5.89-38-8.85-83-4.42-123.79,16,7.84-47.16,38-86.34,71.76-115.12-35.79,11.42-73,25.51-108.55,42.8-27.1,43.44-20.91,105.71-36.05,158.84,59.53-42.67,115.79-56.15,182.16-42.87"/><path class="cls-10" d="M570.23,1738.28q118.13,13.15,211.89,75.13c19.07-20.77,31.53-47.62,40-77.82-85.74-11.06-164.81-32.24-251.86,2.69"/><path class="cls-10" d="M617.61,1633.71c76.91,0,153.76-7.53,216.78,39.71,2-15,3.61-30.32,5-45.65-71-28.93-156.79-43-221.78,5.94"/><path class="cls-10" d="M615.61,1452.42c-24.26,18.6-45.93,39.45-63.32,62.95-1.15,1.54-2.19,3.06-3.3,4.6,1.2,53.14,20.9,103.9,59.15,142.26,0-69.94.09-139.87,7.47-209.81"/><path class="cls-10" d="M466,2554.83c-1.07-48.84.76-295.28,3.95-343.62s8.26-96.41,15.13-144.28,15.58-95.47,26.34-142.61A1417,1417,0,0,1,551.48,1785a985.82,985.82,0,0,1,56.83-133.29c10.7-21.7,23.39-42.3,35.77-63l20.3-30c6.61-10.12,14.57-19.26,21.8-28.93,30.17-37.59,63.79-72.76,102.44-101.67a541.64,541.64,0,0,1,125.72-70,540.64,540.64,0,0,0-124.27,71.87c-38,29.39-70.83,64.91-100.16,102.7-7,9.73-14.76,18.92-21.16,29.06l-19.64,30.12c-12,20.78-24.21,41.4-34.46,63.1A978.31,978.31,0,0,0,560.45,1788,1401.71,1401.71,0,0,0,523,1926.92q-14.9,70.42-23.83,141.92C487.35,2164,481.81,2458.68,484.92,2554Z"/><path class="cls-9" d="M343.54,2179.75s41.07,126.51-118.47,109.86-336.64-128.37-485.91-28.55c201.4-213.89,301-271.92,480.38-249.49,165.87,20.73,152,139.11,124,168.18"/><path class="cls-10" d="M131.13,2007.68c-38.81,2.06-74.73,9.87-110.44,24.53,62.42-3.78,140.84,9.3,182.27,57.78,0-44.83-37.15-64.29-71.83-82.31"/><path class="cls-10" d="M39.45,2078.71c-32.48,0-74.39-4.47-106.86,3.5-56.55,40.33-117.8,98.51-193.44,178.85,51.06-34.14,105.36-43.5,161.1-40.4,15.4-68.81,85.15-111,139.2-141.95"/><path class="cls-10" d="M-44.81,2227.23c27,4.74,54.25,11.39,81.47,18.68,29.77-86,123.67-120.28,201.84-146.42C128,2075.74,4.38,2131.17-44.81,2227.23"/><path class="cls-10" d="M436.32,2557c-13.23-44.41-34.27-286.28-60.36-325.46-26.33-39.15-58.67-74.77-97.75-101.51a325.71,325.71,0,0,0-62.41-33.46,344.35,344.35,0,0,0-68.73-18.12c-47.19-6.35-95.58-3.09-142.35,7.23,46.39-11.85,94.88-16.81,143-11.95a350.67,350.67,0,0,1,70.6,16.16,334.09,334.09,0,0,1,65.18,32.23c41.12,26.19,75.71,61.81,104.17,101.27,28.33,39.84,51.13,281.22,66.92,328.42Z"/><path class="cls-9" d="M672.65,2086.57s-134,95.88-34.5,243.22,198,189,174.16,367.2c125.18-271.93,157.07-435.9,102-542.84s-192.72-148.38-241.69-67.58"/><path class="cls-10" d="M721.87,2099.5c-47.34,10.54-88.79,41.63-114.72,81.8-7.83,27.71-8.82,60.78,4.9,98.25,11.42-71,48-141.32,109.82-180.05"/><path class="cls-10" d="M886,2112.39c-38.68-13.92-80.75-12.9-126.24,15.63,60.34,0,120.62,6.12,161.85,42.12-2.24-5.45-4.63-10.81-7.3-16A213.35,213.35,0,0,0,886,2112.39"/><path class="cls-10" d="M797.69,2204.06c-8.27,74.68-38.23,156.6-102.46,201.51,22.24,27.14,43,51,61,74.86,45.24-53.85,83.23-122.33,60.46-190.82,53.81,15.41,88.9,62.1,105.31,114.68a676,676,0,0,0,14.06-72c-26.14-60.92-69.8-114.46-138.33-128.2"/><path class="cls-10" d="M834.54,2357.43c-3.56-36-9.5-71.94-19-107s-22.11-69.54-40.69-101.28c-9.52-15.7-20.54-30.74-34.33-43.48-13.66-12.58-30.77-23.36-50.62-25.31-2.45-.21-4.9-.5-7.35-.62l-7.39.56c-5,0-9.62,1.92-14.43,2.91a132.87,132.87,0,0,0-13.44,5.72c-4,2.57-8.44,4.79-12.18,7.73s-7.67,5.89-11,9l-9.93,9.46c-6.78,6.16-13.06,12.81-19.26,19.55A466.63,466.63,0,0,0,530,2223.2c-12,21.44-33.8,283.64-42.18,306.84H507c7.17-20.06,27.46-280,37.48-298.78a451,451,0,0,1,60.92-87c5.87-6.67,11.83-13.25,18.27-19.38l9.46-9.41c3.14-3.12,6.49-5.53,9.71-8.36,13.22-10.56,29.5-16.56,45.83-15,16.41,1.15,31.81,10.07,44.69,21.45s23.87,25.54,33.36,40.47A367,367,0,0,1,791,2201.63a495.67,495.67,0,0,1,17.68,50.69c10.16,34.43,16.83,69.9,21.16,105.65,8.59,71.52,7.52,144.2-1.08,215.89,10.17-71.49,12.85-144.28,5.79-216.43"/><path class="cls-9" d="M474.86,2007.07S418.58,1907.8,308,1964.84s-73.1,385,52.7,571.93c35.76-136.25,95.23-277.91,205.3-355.21s15.68-197.22-91.15-174.49"/><path class="cls-10" d="M437.54,2052c-34.47-51.86-123.7-48.59-182.37-11.86-12.56,42.46-15.43,97.71-9.8,157.81,33-54.07,91.22-92.84,144.78-79.41,48.29,16.13,62.43,93.91,83,157.76a435.11,435.11,0,0,1,43.34-52.2c-11.24-65-37.51-123.61-78.95-172.1"/><path class="cls-10" d="M498,2002.13c-9.54,1.3-20,5.3-29.08,10.38-9.09,5.4-18,11.4-25.57,19-15.63,14.71-27.83,32.94-37.62,52.28l-7,14.75L393,2113.9l-2.88,7.66-2.26,7.89-4.52,15.78c-2.68,10.62-4.61,21.43-6.95,32.14l-5.32,32.6a1308.35,1308.35,0,0,0-12.66,131.58c-1.82,44-1.88,88.28,2.3,132.24-5-43.88-5.7-88.17-4.66-132.32a1307.76,1307.76,0,0,1,10.33-132.15l4.75-32.84c2.18-10.88,3.94-21.86,6.46-32.68l4.31-16.12,2.16-8.07,2.78-7.88,5.59-15.77,6.9-15.28c9.71-20.11,22-39.3,38.26-55.16,16.31-15.67,35.63-28.81,59.58-32.86Z"/><rect class="cls-11" x="1207.18" y="-197.19" width="74.51" height="2858.93"/><path class="cls-12" d="M3900.36,110.76l128.9-14.37-11.31,2535L2085.76,2172.43l261-1234.32Z"/><path class="cls-13" d="M1499.33,760.55S3752.17,119.37,3986.14,83.28a21.3,21.3,0,0,1,13.44,2.21c3.75,2.13,5.88,5.33,5.81,8.69-4.84,190.12-16.59,2441.18-16.59,2441.18L1508.25,2001.44Z"/><path class="cls-14" d="M2113.16,684.16l19.54,566.18A5.85,5.85,0,0,0,2139,1256l686-57.58a5.86,5.86,0,0,0-1-11.67l-679.85,57.06-19.33-560a5.84,5.84,0,1,0-11.67.4Z"/><path class="cls-15" d="M2202.56,1105.47l-36.09,4.41v95l36.09-4.43Z"/><path class="cls-15" d="M2267.51,1072.32l-36.09,4.43v116.57l36.09-4.42Z"/><path class="cls-15" d="M2332.46,1043.2l-36.09,4.42v134.16l36.09-4.43Z"/><path class="cls-15" d="M2397.41,1007.67l-36.09,4.41v158.16l36.09-4.43Z"/><path class="cls-15" d="M2462.36,949.71l-36.09,4.41V1158.7l36.09-4.43Z"/><path class="cls-15" d="M2527.31,883.24l-36.09,4.43v259.49l36.09-4.43Z"/><path class="cls-15" d="M2592.26,830l-36.09,4.41v301.2l36.09-4.43Z"/><path class="cls-15" d="M2657.21,752.18l-36.09,4.42v367.47l36.09-4.43Z"/><path class="cls-15" d="M2722.16,658.12l-36.09,4.42v450l36.09-4.43Z"/><path class="cls-14" d="M2189.72,1015.67c44.49-31,83.37-68,123.36-104.59,74.29-67.88,148.15-136.57,224.79-201.8,41.18-35,83.87-68.27,126-102.2,9.42-7.6,22.88-15.19,34.58-23.89,8.45-6.29,16-13.17,20.88-20.88a5.85,5.85,0,1,0-9.86-6.29c-5.3,8.34-14.34,15.39-23.81,21.93-10.28,7.1-21.11,13.56-29.11,20-42.18,34-85,67.28-126.22,102.4-76.75,65.32-150.71,134.1-225.1,202.08-39.61,36.2-78.1,72.86-122.16,103.62a5.85,5.85,0,1,0,6.67,9.62Z"/><path class="cls-14" d="M2711.84,557c-.08,4.1-.33,8.4-.39,8.89-1.43,11.44-2.76,22.94-3.61,34.44a5.84,5.84,0,1,0,11.64.86c.83-11.3,2.15-22.6,3.56-33.84.09-.72.55-8.48.47-14a24.8,24.8,0,0,0-.79-6.71,6.08,6.08,0,0,0-4-3.87,5.8,5.8,0,0,0-4.3.31c-7.25,3.38-14.43,5.79-21.3,10.17-5.57,3.55-11,7-16.28,11a5.85,5.85,0,0,0,7,9.35c5-3.8,10.22-7.08,15.52-10.46A80.09,80.09,0,0,1,2711.84,557Z"/><path class="cls-16" d="M2814.33,476.41q-10,19.79-18.77,42.36t-16.47,43.89a8.55,8.55,0,0,1-3,3.6c-1.25.82-2.28,1-3.09.37a5.22,5.22,0,0,1-1.65-2.93,19,19,0,0,1-.44-4.07,26.25,26.25,0,0,1,.33-4.49,28.13,28.13,0,0,1,.85-3.94q6.35-20.36,14.62-40.24A420.68,420.68,0,0,1,2806,471a6.69,6.69,0,0,1,2.84-3.06,4.25,4.25,0,0,1,3.2-.5,5.45,5.45,0,0,1,3.21,3C2815.94,472,2815.63,474,2814.33,476.41ZM2837.68,518q3.18,7.28,2.65,13.19a26.54,26.54,0,0,1-3.21,10.69,31.24,31.24,0,0,1-6.76,8.29,54,54,0,0,1-8,5.81c-6.23,3.59-10.84,4.49-13.88,2.71S2804.3,553,2805,547a33.13,33.13,0,0,1,3.16-10,61.5,61.5,0,0,1,6.48-10.79,58,58,0,0,1,8.1-8.86q4.28-3.75,8.22-4.24a6,6,0,0,1,3.68.67Q2836.25,514.71,2837.68,518Zm-21.8,27.89c.07.66.69.78,1.84.38a15.6,15.6,0,0,0,4-2.32,32.72,32.72,0,0,0,4.5-4.07,16.9,16.9,0,0,0,3.36-5.16,5.66,5.66,0,0,0,.15-2,16.34,16.34,0,0,0-.36-2.68,11.79,11.79,0,0,0-.75-2.33c-.32-.69-.67-1-1.05-1-1.24,0-2.58.85-4,2.5a30.22,30.22,0,0,0-3.88,5.82,56,56,0,0,0-2.89,6.52C2816,543.62,2815.7,545.08,2815.88,545.87ZM2771.63,500a126.31,126.31,0,0,1-2,12.85,57.67,57.67,0,0,1-3.78,11.86,45.08,45.08,0,0,1-3.44,6.27,37.15,37.15,0,0,1-4.82,6,24.59,24.59,0,0,1-5.82,4.44,8.91,8.91,0,0,1-6.22,1.07,7.1,7.1,0,0,1-4.39-2.39,13.26,13.26,0,0,1-2.45-4.44,20.36,20.36,0,0,1-1-5.33,18.69,18.69,0,0,1,.39-5.29,39.62,39.62,0,0,1,2.73-9.12,63,63,0,0,1,11.56-18,45,45,0,0,1,7.57-6.68,29.83,29.83,0,0,1,4.44-2.16,4.72,4.72,0,0,1,3.91-.07,2.38,2.38,0,0,1,1,2.11,3.89,3.89,0,0,1-1.34,3l-1.22,1.36.75-.08a4,4,0,0,1,3.07,1.23A4.07,4.07,0,0,1,2771.63,500ZM2749,524.15a6.37,6.37,0,0,0,.08,2.82,1.42,1.42,0,0,0,1.68,1.2q2.63-.31,4.5-4.17a64.46,64.46,0,0,0,3.06-7.44,45.41,45.41,0,0,0,1.5-6.45q.53-3.28,1.21-7.41-4.14,5.55-7.73,11.24A28.29,28.29,0,0,0,2749,524.15Z"/><path class="cls-17" d="M3141.74,675.64C3217,651.22,3303.88,608.79,3361.65,554c8-7.63,15.81-16.44,21.45-26.11,16.22-27.83,8-51.07-9.85-68.85-16.65-16.61-42.13-28.22-62.45-33.88-21.58-6-43.63-8.36-65.92-9.33-32.7-1.42-64.23-.19-96.48,6.46-87.39,18-184.88,66.79-231.23,148.06-11.71,20.52-19.87,50.61-15.86,76.38,2.8,18.07,11.47,34.06,28.49,43.8,26.17,15,57.15,17.13,88.62,14.93,30.31-2.11,61.07-8.25,88.08-10a5.86,5.86,0,0,0-.71-11.69c-27,1.7-57.83,7.84-88.16,10-29.17,2-57.93.4-82.19-13.46-17.31-9.89-23.55-28-23.67-47.06-.12-20.17,6.55-41.59,15.36-57,44.75-78.47,139.17-125.06,223.54-142.46,31.34-6.46,62-7.62,93.72-6.23,21.42.93,42.64,3.15,63.37,8.92,18.66,5.19,42.14,15.69,57.45,30.94,14.12,14.09,20.84,32.47,8,54.52-5.08,8.73-12.14,16.63-19.39,23.51-56.61,53.71-141.79,95.14-215.56,119.07a5.88,5.88,0,0,0-3.73,7.36A5.74,5.74,0,0,0,3141.74,675.64Z"/><path class="cls-14" d="M2396.21,1603.28c-2.65,25.4,1.33,141.87,10.41,196,1.67,10,3.56,17.94,5.54,23a23.61,23.61,0,0,0,3.77,6.7,28.88,28.88,0,0,0,10.74,7.25c5.71,2.41,13.28,4.24,21.87,5.58,31.29,4.85,77.07,3.26,91,4.35,113.11,8.86,227.87,28,341.38,42.12a4.85,4.85,0,0,0,5.58-5.21,7.12,7.12,0,0,0-6-6.64c-113.69-14.13-228.62-33.29-341.91-42.18-13.8-1.07-59.12.55-90.12-4.25-7.43-1.15-14-2.65-18.92-4.72a14.64,14.64,0,0,1-5.48-3.4c-1.29-1.49-2.15-4.76-3.28-9.24-2.19-8.75-4.13-21.3-5.84-36-6.69-58-9.48-148.44-7.19-170.31a7.12,7.12,0,0,0-5.17-7.31A4.87,4.87,0,0,0,2396.21,1603.28Z"/><path class="cls-14" d="M2471.25,1794.17c19.61-8.32,64.65-5.1,86.52.78,4.74,1.26,9.11,3.42,13.54,5.33,5.31,2.3,10.71,4.3,16.66,4.88,12.65,1.22,37.93,2,49.45,0,4-.7,8-3.09,12.06-5.26,2.58-1.36,5.09-2.83,7.85-2.36,2,.34,2.45,1.9,3,3.35.65,1.61,1.23,3.28,1.92,4.88,2.39,5.49,5.83,10.11,13.62,11.4,4.52.75,8.56.07,12.46-.61,3.45-.6,6.72-1.58,10.51,1.2,2.81,2,6.33,1.6,7.9-1s.57-6.34-2.22-8.38c-6.2-4.53-11.66-4.83-17.22-4-3.58.5-7.19,1.72-11.39,1-2.09-.36-2.75-1.9-3.36-3.4s-1.21-3.22-1.87-4.78c-2.36-5.54-5.7-10.15-13.28-11.45-4.15-.7-8.21.31-12.11,2.15s-7.72,4.79-11.56,5.45c-10.83,1.9-34.64,1-46.55-.14-4.61-.45-8.8-2.11-12.93-3.9-5-2.15-10-4.52-15.31-5.95-23.66-6.35-72.31-9.4-93.51-.41-2.77,1.18-3.73,4.64-2.14,7.71S2468.48,1795.34,2471.25,1794.17Z"/><path class="cls-14" d="M2428.66,2042.08c0-2.28-.09-8.18.11-14.77,1.29-40.91,7.83-139.32,9.11-147a7.08,7.08,0,0,0-4.8-7.54,4.88,4.88,0,0,0-6.65,3.78c-1.45,8.77-9.68,133.64-9.47,161.2a38.25,38.25,0,0,0,.4,6.13,8,8,0,0,0,1.25,2.94,31.42,31.42,0,0,0,9.81,8.57c5.45,3.25,12.83,6.29,21.28,9,30.92,10,77.1,16.25,91,19.21,106.69,22.78,214.09,38.76,320.84,52a4.86,4.86,0,0,0,5.58-5.21,7.13,7.13,0,0,0-6-6.64c-106.41-13.23-213.47-29.15-319.82-51.86-13.69-2.92-59.23-9-89.75-18.88-7.36-2.38-13.77-4.93-18.52-7.77A21.78,21.78,0,0,1,2428.66,2042.08Z"/><path class="cls-14" d="M2496.41,2012.86c7.75-5,13.32-7.22,18.35-7.39,4.77-.17,8.93,1.57,13.88,3.82,8.19,3.74,18.11,8.92,33.82,12.47,25.2,5.71,51.54-.84,77.19,2.79,26.68,3.78,52.07,15.85,78.11,24.11a4.89,4.89,0,0,0,6.61-3.85,7.09,7.09,0,0,0-4.85-7.51c-26.7-8.49-52.75-20.7-80.1-24.58-25.34-3.58-51.33,3-76.22-2.62-14.56-3.29-23.74-8.16-31.34-11.62-6.88-3.14-12.68-5.17-19.3-4.94-6.36.22-13.58,2.6-23.37,8.91-2.51,1.63-2.92,5.27-.94,8.13S2493.9,2014.47,2496.41,2012.86Z"/><path class="cls-14" d="M3306.29,1479.47a28,28,0,0,1,4.59-7.93,3.67,3.67,0,0,1,2.16-1.45,5.47,5.47,0,0,1,2.94.84,39.71,39.71,0,0,1,5.92,4c10.56,8.3,24,21,42.95,21,75.2.16,148.75-2.07,223.73,5.34a5.85,5.85,0,0,0,1.15-11.65c-75.36-7.45-149.28-5.24-224.86-5.4-9.15,0-16.6-4-23-8.44-7.43-5.24-13.58-11.24-19-14.43-4.22-2.48-8.22-3.49-12-2.82-5,.9-10.52,5-15.34,16.28a5.85,5.85,0,1,0,10.74,4.63Z"/><path class="cls-14" d="M3469.83,1456.52a21.84,21.84,0,0,1,3.24-.76,82.82,82.82,0,0,1,13-.33c27.08,1,71.6,8.44,84.21,7.83a5.86,5.86,0,0,0-.55-11.7c-14.34.69-70.14-9.19-94.12-7.79-5.36.31-9.43,1.29-11.8,2.64a9.14,9.14,0,0,0-4.11,4.45,5.84,5.84,0,0,0,10.13,5.66Z"/><path class="cls-14" d="M3502,1544.06c13.72-1.54,27.29-3.66,40.94-5.68a5.85,5.85,0,0,0-1.7-11.58c-13.51,2-27,4.09-40.54,5.61a5.86,5.86,0,0,0,1.3,11.65Z"/><path class="cls-14" d="M3525.15,1690.92c-2.16,23.55-1.69,47.53-2.62,71.36-1.2,30.14-6.13,54.19-6.86,72.38-.64,16,2.2,28,11,36.41,8.26,7.86,22.72,12.89,47.24,13.82,40,1.51,80.45,9.88,120.6,15.09a4.85,4.85,0,0,0,5.62-5.16,7.14,7.14,0,0,0-6-6.68c-40.5-5.25-81.31-13.66-121.64-15.19-20-.75-32-3.62-38.74-10-6.22-5.92-7-14.58-6.54-25.89.74-18.18,5.66-42.24,6.86-72.38.94-23.62.43-47.41,2.59-70.76a7.11,7.11,0,0,0-5.23-7.25A4.86,4.86,0,0,0,3525.15,1690.92Z"/><path class="cls-14" d="M3550.71,1845.87c39.58-40.83,85.73-73.86,126.47-113.37,2.14-2.07,1.94-5.83-.44-8.39s-6-2.95-8.18-.89c-40.82,39.57-87,72.68-126.67,113.57-2.08,2.15-1.78,5.91.66,8.41S3548.64,1848,3550.71,1845.87Z"/><path class="cls-14" d="M3540.39,1997c49.1,3.09,99.45,6.16,148.73,10.83a4.86,4.86,0,0,0,5.4-5.4,7.11,7.11,0,0,0-6.16-6.49c-49.4-4.69-99.86-7.76-149.09-10.85a4.86,4.86,0,0,0-5.21,5.59A7.08,7.08,0,0,0,3540.39,1997Z"/><path class="cls-14" d="M3639.82,2044.48q17.83,2.12,35.7,4.35a4.87,4.87,0,0,0,5.58-5.22,7.16,7.16,0,0,0-6-6.63q-17.89-2.22-35.75-4.36a4.85,4.85,0,0,0-5.54,5.25A7.11,7.11,0,0,0,3639.82,2044.48Z"/><path class="cls-14" d="M3670.1,2109.19c7.49.43,14.63.17,22,.06,3.16,0,5.27-2.76,4.73-6.06a7.05,7.05,0,0,0-6.71-5.88c-7.11.11-14,.36-21.22-.06a4.87,4.87,0,0,0-5.16,5.64A7.12,7.12,0,0,0,3670.1,2109.19Z"/><path class="cls-14" d="M2990.74,2119.1c-.06-1.17-.15-3.41-.15-5.55,0-17.75,1.78-59.14,1.76-63.52-.09-68.31-2.52-136.73-4.88-205.38-1.95-56.53-9.29-132.77.35-186.87a7.08,7.08,0,0,0-4.7-7.6c-3.16-1.07-6.16.59-6.71,3.7-9.77,54.83-2.5,132-.53,189.3,2.36,68.53,4.78,136.81,4.88,205,0,4.39-1.79,45.77-1.77,63.51a72.08,72.08,0,0,0,.33,8.25,8.21,8.21,0,0,0,.93,2.86c2.43,4.49,7,7.9,12.6,10.15,6.07,2.46,13.33,3.62,17.65,4.84,30,8.47,60.43,13,90.53,20.69,68.9,17.61,138.09,36,207.24,49.77,52.33,10.45,105.4,17.17,157.57,30.51a4.84,4.84,0,0,0,6.3-4.3,7.12,7.12,0,0,0-5.23-7.26c-52.38-13.41-105.67-20.17-158.2-30.67-68.95-13.77-137.91-32.06-206.61-49.63-30-7.67-60.34-12.16-90.23-20.59-4-1.14-10.7-2.12-16.32-4.39C2993.68,2121.15,2991.84,2120.39,2990.74,2119.1Z"/><path class="cls-14" d="M2976.73,1656.6q87.69,12.48,175.51,25.72c37,5.5,73.81,9.55,110.78,15.74,23,3.85,45.89,7.36,68.89,10.73,13.49,2,27.1,4,40.59,6.69,11.87,2.36,21.38,3.75,28.93,5.67,6.07,1.55,10.68,3.22,13.92,6.77,4.67,5.11,6.27,13.36,6.94,27.61.37,7.92.5,15.72.54,23.58.07,15.4.63,30.9.8,46.33.29,25.76.08,51.46.25,77.21.28,44,.33,88,.42,132,.16,68.22,2.88,136.8,4,205.13a7.16,7.16,0,0,0,5.89,6.76,4.86,4.86,0,0,0,5.71-5.07c-1.08-68.28-3.8-136.81-4-205-.11-44-.15-88-.42-132.06-.17-25.76,0-51.48-.25-77.26-.18-15.41-.74-30.87-.81-46.26,0-8-.17-16-.55-24.08-.89-18.86-4.51-29.58-10.68-36.34-4-4.4-9.22-7.4-16-9.57-8.39-2.71-19.57-4.25-34.26-7.17-13.69-2.72-27.5-4.78-41.19-6.78-22.92-3.36-45.72-6.86-68.65-10.71-37-6.2-74-10.25-111-15.77q-87.81-13.1-175.6-25.73a4.87,4.87,0,0,0-5.69,5.1A7.16,7.16,0,0,0,2976.73,1656.6Z"/><path class="cls-14" d="M3293,1659.11c10.37,66.45-2.29,133.34-2.78,198.47-.93,124.77,4.88,250.76,10.63,376.46a7.13,7.13,0,0,0,6.06,6.59,4.86,4.86,0,0,0,5.53-5.26c-5.74-125.5-11.55-251.27-10.62-375.82.5-65.8,13.1-133.37,2.64-200.48a7.08,7.08,0,0,0-6.66-6C3294.6,1653.13,3292.45,1655.8,3293,1659.11Z"/><path class="cls-14" d="M3193.66,1650c-4.56,51.45,6.35,110.28,7.74,162.81,1.61,60-.1,119.6,2.63,179.74,3.4,75.25,12.82,151,16.7,226.24a7.13,7.13,0,0,0,6.1,6.56,4.85,4.85,0,0,0,5.48-5.31c-3.88-75.21-13.3-150.94-16.7-226.17-2.73-60.06-1-119.59-2.61-179.5-1.4-52.11-12.31-110.45-7.78-161.46a7.13,7.13,0,0,0-5.27-7.25A4.87,4.87,0,0,0,3193.66,1650Z"/><path class="cls-14" d="M3108,1629.77c-4.71,14.26-5.61,39.76-4.86,68.09,1.08,41.19,5.44,88.46,5.06,114.07-1.8,122.29-1.27,244,3.15,367.26a7.13,7.13,0,0,0,6,6.64,4.85,4.85,0,0,0,5.58-5.2c-4.42-123-5-244.56-3.14-366.65.39-25.72-4-73.2-5.08-114.57-.69-26.71-.11-50.81,4.33-64.27,1-2.94-.71-6.54-3.76-8S3109,1626.82,3108,1629.77Z"/><path class="cls-14" d="M2949.36,1726c42.9,26.73,103.3,29.12,149.31,36.37,72,11.36,143.66,26.52,215.59,38.44,35.54,5.89,76.59,6.43,111.78,19.25,3.14,1.15,6.2-.43,6.82-3.52a7.05,7.05,0,0,0-4.55-7.67c-35.9-13.09-77.76-13.84-114-19.85-72-11.91-143.68-27.09-215.67-38.44-44.52-7-103-8.68-144.48-34.54-2.92-1.81-6.35-1.06-7.67,1.69S2946.44,1724.17,2949.36,1726Z"/><path class="cls-14" d="M2986.89,1839.37c53.11-1.36,109.75,19.5,163.16,29.61,60,11.37,119.6,25.34,179.5,37.82,31.13,6.48,62.72,8.55,93.74,17.25a4.86,4.86,0,0,0,6.42-4.13,7.1,7.1,0,0,0-5.07-7.36c-31.28-8.78-63.16-10.91-94.56-17.46-60-12.49-119.66-26.48-179.71-37.86-54.21-10.26-111.69-31.2-165.58-29.81-3.14.08-5.23,2.82-4.65,6.11A7.07,7.07,0,0,0,2986.89,1839.37Z"/><path class="cls-14" d="M2967.57,1937.47c38.26,20.31,83.79,18.53,123.57,25.89,66.72,12.32,133.4,27.43,200.14,38.75,48.2,8.16,102.62,12.75,150.13,30.87,3.13,1.19,6.22-.32,6.9-3.4a7,7,0,0,0-4.45-7.73c-48.26-18.42-103.53-23.22-152.5-31.53-66.67-11.3-133.3-26.4-200-38.71-38.58-7.13-82.77-4.89-119.88-24.58-3-1.6-6.34-.56-7.43,2.33S2964.57,1935.88,2967.57,1937.47Z"/><path class="cls-14" d="M2951,2028.17c46.11,20.17,97.22,27.65,144.6,38.12,49.76,11,99.6,24.39,149.49,32.67,73.16,12.13,147.27,20.85,220,43.22a4.88,4.88,0,0,0,6.56-3.95,7.11,7.11,0,0,0-4.91-7.46c-73.26-22.54-147.9-31.37-221.58-43.59-49.67-8.24-99.31-21.61-148.86-32.55-46.6-10.3-96.89-17.51-142.24-37.36-3.1-1.35-6.28,0-7.12,3A7,7,0,0,0,2951,2028.17Z"/><path class="cls-18" d="M2166.07,1329a11.31,11.31,0,0,1-3.82-5.72,16.53,16.53,0,0,1-.94-4.69,219.2,219.2,0,0,1,6.36-53.81c.73-2.44,1.51-4.67,2.33-6.67s1.54-3.05,2.22-3.12a4.6,4.6,0,0,1,2.42.39,7,7,0,0,1,2.2,1.43,6.51,6.51,0,0,1,1.39,2,4.37,4.37,0,0,1,.42,2.15,198.82,198.82,0,0,0-6.18,33.65q-1.54,16.61-1.85,33a2.33,2.33,0,0,1-1.65,2.22,2.06,2.06,0,0,1-1.55-.07A11.82,11.82,0,0,1,2166.07,1329Zm71.63-56.29a51.73,51.73,0,0,1-2,9.75,62.41,62.41,0,0,1-13.2,23.68,39.26,39.26,0,0,1-11.81,9.11,24.36,24.36,0,0,1-8.36,2.9,13.39,13.39,0,0,1-7.16-.77,10.58,10.58,0,0,1-5-4.56,17.85,17.85,0,0,1-1.93-8.8,46.52,46.52,0,0,1,2.12-13.47,56.79,56.79,0,0,1,6-13.16,62.4,62.4,0,0,1,9-11.4,50.91,50.91,0,0,1,11.35-8.56,2.47,2.47,0,0,1,2.56-.21c.79.41,1.23,1.41,1.34,3,5.69-.09,10.06,1,13.06,3.13S2238,1268.65,2237.7,1272.74Zm-38.15,29.67a4.87,4.87,0,0,0,1.06,3.25,3.81,3.81,0,0,0,2.21,1.09,7.6,7.6,0,0,0,3-.69,27.54,27.54,0,0,0,6.37-3.67,20.9,20.9,0,0,0,2.3-2,43.88,43.88,0,0,0,8.31-11.65,51.1,51.1,0,0,0,4.58-14.44,2.19,2.19,0,0,0-1.17-1.89,8.16,8.16,0,0,0-3.27-1.22,30,30,0,0,0-4.48-.41,22.45,22.45,0,0,0-4.8.39c-1.81,2.11-3.58,4.4-5.31,6.84a55.63,55.63,0,0,0-4.54,7.69,46,46,0,0,0-3.12,8.28A32.65,32.65,0,0,0,2199.55,1302.41Z"/><path class="cls-18" d="M2722.27,1267.63c3.1-.36,6.32-.85,9.65-1.45a32.08,32.08,0,0,1,9.39-.41c3.81.46,6.52,2.12,8.16,5s1.64,6.32,0,10.45a45.8,45.8,0,0,1-4.77,8.64,66.76,66.76,0,0,1-6.64,8c-2.44,2.54-5,5-7.63,7.29s-5.2,4.53-7.67,6.61a5.53,5.53,0,0,1-4.86,1.15,6.5,6.5,0,0,1-3.6-2.2q-3-3.53,1.38-5a169.07,169.07,0,0,0,15.6-14.52,61.19,61.19,0,0,0,10.14-14.06c.28-.82-.28-1.26-1.7-1.33a27.75,27.75,0,0,0-5.38.45c-2.16.37-4.53.81-7.09,1.33s-4.85,1-6.84,1.47a9.38,9.38,0,0,1-2.5.29,8.76,8.76,0,0,1-2.92-.51,4.93,4.93,0,0,1-2.33-1.68,4.47,4.47,0,0,1-.73-3.2q1.55-13.47,4.16-26.93t5.31-24.7a3,3,0,0,1,1.74-2.22,3.92,3.92,0,0,1,2.55-.13,7.75,7.75,0,0,1,4,3,4.8,4.8,0,0,1,.77,3.86q-.95,3.49-1.81,7.29c-.58,2.54-1.15,5.14-1.68,7.78q9-1.89,16.9-2.88a102.35,102.35,0,0,1,14.29-.89c1.42.06,2.86.15,4.33.26a30,30,0,0,1,4.63.74,3,3,0,0,1,2.65,1.79,2.34,2.34,0,0,1-.57,3,46.92,46.92,0,0,1-4.88,2.5,18.76,18.76,0,0,1-2.28.85,188.64,188.64,0,0,0-37.28,6c-.43,2.63-.84,5.18-1.25,7.63S2722.66,1265.56,2722.27,1267.63Zm-34,43.51a11.19,11.19,0,0,1-3.83-5.7,16.91,16.91,0,0,1-.94-4.69,219.62,219.62,0,0,1,6.36-53.81c.74-2.45,1.51-4.67,2.33-6.67s1.56-3,2.22-3.13a4.76,4.76,0,0,1,2.43.4,6.6,6.6,0,0,1,2.19,1.43,6.68,6.68,0,0,1,1.41,2,4.58,4.58,0,0,1,.4,2.15,197.68,197.68,0,0,0-6.17,33.64q-1.56,16.61-1.86,33a2.32,2.32,0,0,1-1.65,2.22,2,2,0,0,1-1.55-.09A8.46,8.46,0,0,1,2688.3,1311.14Zm135.13-63.61a51.81,51.81,0,0,1-2,9.76,62.68,62.68,0,0,1-5,11.94,61.59,61.59,0,0,1-8.23,11.73,39.17,39.17,0,0,1-11.8,9.12,24.2,24.2,0,0,1-8.37,2.9,13.29,13.29,0,0,1-7.16-.78,10.42,10.42,0,0,1-5-4.55,18,18,0,0,1-1.94-8.8,46,46,0,0,1,2.13-13.46,55.42,55.42,0,0,1,6-13.16,62,62,0,0,1,9-11.41,51,51,0,0,1,11.36-8.56,2.48,2.48,0,0,1,2.55-.21c.79.42,1.24,1.4,1.33,3q8.55-.15,13.07,3.12T2823.43,1247.53Zm-38.16,29.69a5,5,0,0,0,1.07,3.24,3.89,3.89,0,0,0,2.21,1.1,8,8,0,0,0,3-.69,29.43,29.43,0,0,0,3.33-1.65,27.28,27.28,0,0,0,3-2,19.65,19.65,0,0,0,2.29-2,43.24,43.24,0,0,0,8.31-11.66,51.05,51.05,0,0,0,4.59-14.43,2.15,2.15,0,0,0-1.17-1.88,8.36,8.36,0,0,0-3.28-1.24,31.19,31.19,0,0,0-4.47-.4,24.5,24.5,0,0,0-4.8.38q-2.71,3.18-5.31,6.85a55.12,55.12,0,0,0-4.54,7.68,46.66,46.66,0,0,0-3.12,8.29A32.26,32.26,0,0,0,2785.27,1277.22Z"/><path class="cls-18" d="M2988.72,586.9a212.09,212.09,0,0,1,13.37-24.78,285.52,285.52,0,0,1,17.47-24.77,15,15,0,0,1,4.74-2.82c2.09-.86,3.83-1,5.2-.34a1.42,1.42,0,0,0,.46.35.76.76,0,0,1,.3.39c.14-.35.35-1,.65-1.93a11,11,0,0,1,2.58-3.58,4,4,0,0,1,3.38-1.15,5,5,0,0,1,3.68,2.19,6.53,6.53,0,0,1,.57,4.24q-2.74,9.91-4.95,20.2t-3.94,21.93q5.07-1.77,10.45-3.31c3.58-1,7.34-2,11.25-3.07a7.54,7.54,0,0,1,2.24-.25,16.74,16.74,0,0,1,2.44.21,3.86,3.86,0,0,1,1.92.8,1.78,1.78,0,0,1,.6,1.61q-.18,2.38-3,4.73a18.34,18.34,0,0,1-6,3.39q-5.37,1.63-10.61,3.41c-3.49,1.19-7,2.45-10.49,3.74q-.66,6.49-1.12,13.28c-.29,4.52-.47,9.27-.53,14.21a4.36,4.36,0,0,1-1.5,3.38,4.78,4.78,0,0,1-3.14,1.37,3.79,3.79,0,0,1-3.61-2.29,11.59,11.59,0,0,1-1.39-5.22c-.29-3.45-.39-6.87-.35-10.25s.14-6.8.31-10.31c-3.27,1.28-6.61,2.54-10,3.77s-6.7,2.43-10,3.59a9.3,9.3,0,0,1-6.2.38,7.16,7.16,0,0,1-3.78-3,10.57,10.57,0,0,1-1.51-4.87A15.12,15.12,0,0,1,2988.72,586.9Zm-20.23,29.64a11.19,11.19,0,0,1-3.83-5.71,17.1,17.1,0,0,1-.95-4.7,220.77,220.77,0,0,1,6.36-53.81c.75-2.44,1.52-4.67,2.33-6.67s1.56-3,2.22-3.12a5.13,5.13,0,0,1,2.44.39,6.89,6.89,0,0,1,2.19,1.44,6.55,6.55,0,0,1,1.4,2,4.5,4.5,0,0,1,.4,2.15,199.07,199.07,0,0,0-6.17,33.66q-1.56,16.6-1.85,33a2.29,2.29,0,0,1-1.66,2.2,2.07,2.07,0,0,1-1.55-.07A10.75,10.75,0,0,1,2968.49,616.54ZM3117,551.38a50.33,50.33,0,0,1-2,9.75,62.62,62.62,0,0,1-13.19,23.67,39.34,39.34,0,0,1-11.81,9.12,24.27,24.27,0,0,1-8.35,2.91,13.55,13.55,0,0,1-7.18-.78,10.44,10.44,0,0,1-5-4.57,17.73,17.73,0,0,1-1.93-8.79,46.84,46.84,0,0,1,2.11-13.47,56.34,56.34,0,0,1,6-13.15,61.23,61.23,0,0,1,9-11.4,50.17,50.17,0,0,1,11.35-8.56,2.48,2.48,0,0,1,2.56-.22c.79.42,1.23,1.4,1.33,3q8.57-.15,13.06,3.13T3117,551.38Zm59.36-6.86a50.87,50.87,0,0,1-2,9.76A62.78,62.78,0,0,1,3161.21,578a39.34,39.34,0,0,1-11.81,9.12A24.22,24.22,0,0,1,3141,590a13.43,13.43,0,0,1-7.17-.77,10.51,10.51,0,0,1-5-4.56,18,18,0,0,1-1.94-8.8,47.14,47.14,0,0,1,2.12-13.46,56.23,56.23,0,0,1,6-13.16,61.21,61.21,0,0,1,9-11.41,50.42,50.42,0,0,1,11.35-8.55A2.48,2.48,0,0,1,3158,529q1.18.63,1.32,3,8.57-.15,13.07,3.13T3176.4,544.52Zm-147.71-4.18a7.87,7.87,0,0,1-.93,1.37c-.36.44-.67.83-.92,1.2a246.57,246.57,0,0,0-16,22.82,174.52,174.52,0,0,0-12.49,24.11l10.78-4.36q5.51-2.24,11.44-4.43A252.3,252.3,0,0,1,3028.69,540.34ZM3254,510.47a377.76,377.76,0,0,0-16.57,35.36q-7.73,18.82-14.54,36.64a7.28,7.28,0,0,1-2.62,3c-1.1.69-2,.79-2.73.31a4.32,4.32,0,0,1-1.46-2.45,16.12,16.12,0,0,1-.39-3.4,21.6,21.6,0,0,1,.3-3.74,23.58,23.58,0,0,1,.74-3.29q5.61-17,12.91-33.59a342.39,342.39,0,0,1,17-33.38,5.79,5.79,0,0,1,2.5-2.56A3.92,3.92,0,0,1,3252,503a4.71,4.71,0,0,1,2.84,2.54Q3255.71,507.41,3254,510.47ZM3078.9,581.05a5,5,0,0,0,1,3.25,3.91,3.91,0,0,0,2.22,1.1,8,8,0,0,0,3-.69,28.6,28.6,0,0,0,3.33-1.65,25.84,25.84,0,0,0,3-2,19.1,19.1,0,0,0,2.31-2,43.44,43.44,0,0,0,8.3-11.65,50.41,50.41,0,0,0,4.58-14.43,2.13,2.13,0,0,0-1.16-1.88,8.22,8.22,0,0,0-3.27-1.22,28.82,28.82,0,0,0-4.49-.42,24.5,24.5,0,0,0-4.8.38q-2.72,3.19-5.3,6.86a56,56,0,0,0-4.55,7.68,47.31,47.31,0,0,0-3.11,8.28A31.87,31.87,0,0,0,3078.9,581.05Zm195.7-35.89a21.66,21.66,0,0,1,2.34,11,21.19,21.19,0,0,1-2.83,8.92,26.41,26.41,0,0,1-6,6.93,48,48,0,0,1-7,4.84q-8.25,4.5-12.26,2.27c-2.67-1.5-3.71-4.74-3.1-9.76a26.87,26.87,0,0,1,2.79-8.32,52,52,0,0,1,5.72-9,50.94,50.94,0,0,1,7.15-7.4,14.28,14.28,0,0,1,7.26-3.53,5.46,5.46,0,0,1,3.25.56A7.34,7.34,0,0,1,3274.6,545.16Zm-136.35,29.05a5,5,0,0,0,1.06,3.25,3.93,3.93,0,0,0,2.22,1.09,7.78,7.78,0,0,0,3-.69,28,28,0,0,0,3.34-1.65,25.31,25.31,0,0,0,3-2,19.65,19.65,0,0,0,2.29-2,43.27,43.27,0,0,0,8.32-11.66,50.31,50.31,0,0,0,4.58-14.43,2.13,2.13,0,0,0-1.17-1.88,8,8,0,0,0-3.26-1.22,30.09,30.09,0,0,0-4.49-.42,23.76,23.76,0,0,0-4.8.39c-1.81,2.11-3.57,4.4-5.3,6.84a57.44,57.44,0,0,0-4.55,7.7,46.62,46.62,0,0,0-3.11,8.27A32.26,32.26,0,0,0,3138.25,574.21Zm117.11-5.76c.06.55.61.65,1.62.32a14.2,14.2,0,0,0,3.51-1.94,28.19,28.19,0,0,0,4-3.4,14,14,0,0,0,3-4.3,4.46,4.46,0,0,0,.13-1.7,13.28,13.28,0,0,0-.32-2.24,9,9,0,0,0-.66-1.94c-.28-.58-.59-.85-.92-.82-1.1,0-2.28.71-3.54,2.09a25,25,0,0,0-3.42,4.86,46.31,46.31,0,0,0-2.56,5.44A7.4,7.4,0,0,0,3255.36,568.45Zm-39.06-38.29a99.78,99.78,0,0,1-1.74,10.72,46.67,46.67,0,0,1-3.33,9.9,37.9,37.9,0,0,1-3,5.24,31.52,31.52,0,0,1-4.25,5,21.52,21.52,0,0,1-5.15,3.71,8.17,8.17,0,0,1-5.48.89,6.36,6.36,0,0,1-3.88-2,10.84,10.84,0,0,1-2.16-3.71,16.36,16.36,0,0,1-.89-4.45,15.24,15.24,0,0,1,.35-4.42,31.54,31.54,0,0,1,2.41-7.61,52.65,52.65,0,0,1,4.38-7.84,53.46,53.46,0,0,1,5.83-7.16,39.1,39.1,0,0,1,6.68-5.57,26.71,26.71,0,0,1,3.92-1.8,4.35,4.35,0,0,1,3.45-.06,1.92,1.92,0,0,1,.85,1.76,3.15,3.15,0,0,1-1.18,2.49l-1.07,1.13.66-.07a3.64,3.64,0,0,1,2.71,1A3.3,3.3,0,0,1,3216.3,530.16Zm-20,20.16a5,5,0,0,0,.07,2.35,1.25,1.25,0,0,0,1.48,1q2.32-.27,4-3.49a52.14,52.14,0,0,0,2.71-6.21,36.73,36.73,0,0,0,1.32-5.38c.31-1.83.66-3.89,1.07-6.19q-3.66,4.64-6.82,9.39A22.72,22.72,0,0,0,3196.31,550.32Z"/><path class="cls-18" d="M2790.4,2019.21q.3,2.49.64,5.57c.21,2,.46,4.16.73,6.32s.48,4.35.64,6.58.25,4.35.32,6.37c1.55-3.1,3.24-6.39,5-9.85a94.44,94.44,0,0,1,5.77-9.68,45.2,45.2,0,0,1,6.35-7.56,12.14,12.14,0,0,1,6.92-3.49,9.91,9.91,0,0,1,8.89,3,27.47,27.47,0,0,1,5.51,9.39,63.51,63.51,0,0,1,3.06,12.2q1,6.47,1.57,11.45.63,4.47-4.51,7.26c-1.62,1-2.78,1.22-3.52.74a2.33,2.33,0,0,1-1.19-1.55,50.54,50.54,0,0,1-1.51-6.9q-.84-5-2-10.05a45.63,45.63,0,0,0-2.85-8.77q-1.68-3.68-4.2-3c-2,.34-3.88,2.08-5.66,5.2q-2.27,3.81-4.69,8.38t-4.75,9.31q-2.34,4.74-4.6,9.46t-4.21,8.66a7.69,7.69,0,0,1-3,1.95,5.83,5.83,0,0,1-3.55.15,4.13,4.13,0,0,1-2.51-1.39,3.07,3.07,0,0,1-.82-2.27q-.43-13.08-1.17-23.79t-2.31-21.8a10.64,10.64,0,0,1,.07-6.16c.62-1.59,2.29-2.37,5-2.35C2787.68,2012.78,2789.85,2015,2790.4,2019.21Z"/><path class="cls-19" d="M1498.7,772.41l-.19-26.45S3748.31,116.82,3982.27,80.73a21.24,21.24,0,0,1,13.42,2.21c3.77,2.12,5.9,5.32,5.83,8.68l-.85,33.1Z"/><path class="cls-19" d="M3980.79,86l5.95-.92a21.29,21.29,0,0,1,13.42,2.21c3.75,2.13,5.9,5.33,5.81,8.69-4.82,190.12-6.39,2439.42-6.39,2439.42l-20.33-4.46L3985.58,94C3985.66,91,3983.91,88.06,3980.79,86Z"/><path class="cls-20" d="M3816.69,1229.72l-17.23,325.79-288.41,17.68,26.08-304.65Z"/><path class="cls-21" d="M3526.41,1266.54l288.66-46.77s24.4,119.79-71.16,250.88l-309.62,25.69S3535.73,1378.93,3526.41,1266.54Z"/><path class="cls-22" d="M3526.81,1290.22a180,180,0,0,0-.4-23.68l288.66-46.77s2,9.9,2.6,27.11Z"/><path class="cls-23" d="M3825.29,897.56l-17.23,325.79L3519.65,1241l26.08-304.66Z"/><path class="cls-24" d="M3535,934.39l288.66-46.77s24.4,119.79-71.16,250.88l-309.62,25.69S3544.34,1046.78,3535,934.39Z"/><path class="cls-25" d="M3535.41,958.06a179.79,179.79,0,0,0-.4-23.67l288.66-46.77s2,9.89,2.6,27.1Z"/><path class="cls-26" d="M3834.87,531l-17.24,325.79-288.4,17.69,26.08-304.65Z"/><path class="cls-17" d="M3544.58,567.79,3833.24,521s24.4,119.79-71.15,250.88l-309.63,25.69S3553.91,680.18,3544.58,567.79Z"/><path class="cls-27" d="M3545,591.47a179.91,179.91,0,0,0-.4-23.68L3833.24,521s2,9.89,2.61,27.1Z"/><path class="cls-28" d="M3335.59,838.49c4.79,89.82-42.38,173.31-70.87,259.21-17.21,51.93-248.13,438.8-307.44,538.61-27.52,46.28-97.93,235.84-158.19,266-124.62,62.44-712.51,225.18-712.51,225.18s-269.68-61.16-336.66-63.19c-5.05-.16,45.07-65.26,44.59-67.54-8.61-40.68,4.89-81.22-1.09-121.88-3.82-26.09-5.34-204.59,10.64-211.75,4-1.77,24.74,35.37,25.2,41.41,3.41,45.09,208-129.48,275-110.85,52.11,14.51-58.23,47.46-10.18,91.34,24.54,22.43,489.42,47.46,489.42,47.46s90.27-85,106.13-97.08c83.71-63.6,436.86-572,436.86-572s140.63-104.84,159.68-132.72"/><path class="cls-29" d="M1495.91,1319.26c-17.39,25.53-82.32,141.46-85.86,170.29-18,146.58-50.35,292.58-50.29,440.31,0,34.72-11.08,153.27,9.55,184.48,43.78,66.18,164.78,88.46,236,108.24,72.79,20.23,146.82,39.58,221.32,52.33"/><path class="cls-30" d="M3203.34,641.7l16.49-13.45,30.57-12.55-16.93,40.76Z"/><path class="cls-31" d="M3086.89,1029.25c-1.92-19.32-6.45-62.6-13.2-87.82-7.69-28.62-16.17-57.14-20-86.61-2.57-20-4-79.45-3.89-99.55.18-18.47,30.5-47.34,42.74-52.46,6.45-2.7,22.22-8.63,26.17-15.21,10.85-18.09,6-45.57,18.93-63.15,5.4-7.37,23.52-10,31.8-13.26,6.59-2.62,17.62-8.31,25-7.11,2.63.43,3.73,5.94,4.76,8,3.29,6.78,6.54,21.85,13.11,26,7.25,4.6,18,5,25.94,9.44,2.59,1.44,3.07,6.56,4.15,9,3.95,9,7.25,19,12.31,27.43,2.17,3.62,3.36,9.33,6.56,12.15,5.54,4.89,15.49,8.93,18.92,15.82,7.74,15.59,10.51,33.65,17.87,49.47,4.49,9.68,17.6,13.73,22.52,24,5.17,10.79,6.8,26.89,8.47,38.6,3.13,22.12,6.06,44.84,2.95,67.26-1.22,8.69-11.58,19.64-14.33,28-11.73,35.66-70.08,128.6-110,172-.23.74-.48,1.52-.78,2.34-13.5,40-43.17,106.53-61.55,144.63-29.54,61.15-58.69,122.72-90.42,182.69-51.76,97.73-113.31,190.88-173.78,283.07-22.54,34.4-49.4,76.18-83.29,100.56-6.77,4.86-35.74,16-44.32,13.15-13.52-4.48-9.4-29.31-13.48-39.73-14.85-38-25.83-77.66-41.37-115.25-14.18-34.3-22.76-74.26-31.48-110.38-2.79-11.61-11.83-29.74-10.64-41.56l8.83-12.94c44.94-27,108.92-106.25,144.95-143.73,33.09-34.44,237.21-272.55,264.87-307.92C3077.63,1043.23,3081.86,1036.73,3086.89,1029.25Z"/><path class="cls-32" d="M2676.23,1490.74c.48,14,6,27.84,8.72,41.38,8,39.51,17.93,78,37.06,113.84,14.21,26.65,34.07,51.16,50.59,76.38,12.91,19.71,28.24,37,42.19,55.88a85.19,85.19,0,0,0,6,6.54,181.22,181.22,0,0,1-22.93,19.92c-6.77,4.86-35.74,16-44.32,13.15-13.52-4.48-9.4-29.31-13.48-39.73-14.85-38-25.83-77.66-41.37-115.25-14.18-34.3-22.76-74.26-31.48-110.38-2.79-11.61-11.83-29.74-10.64-41.56l8.83-12.94Q2670.63,1494.8,2676.23,1490.74Z"/><path class="cls-33" d="M3190.09,604.06a15.56,15.56,0,0,1,4.37,0c2.63.43,3.73,5.94,4.76,8,3.29,6.78,6.54,21.85,13.11,26,7.25,4.6,18,5,25.94,9.44,2.59,1.44,3.07,6.56,4.15,9,3.95,9,7.25,19,12.31,27.43,2.17,3.62,3.36,9.33,6.56,12.15,5.54,4.89,15.49,8.93,18.92,15.82,7.74,15.59,10.51,33.65,17.87,49.47,4.49,9.68,17.6,13.73,22.52,24,5.17,10.79,6.8,26.89,8.47,38.6,3.13,22.12,6.06,44.84,2.95,67.26-1.22,8.69-11.58,19.64-14.33,28-10.89,33-61.84,115.38-101,161.81,6.45-12.26,18.88-23.78,25.63-34.19,4.67-7.21,5.12-15.33,11.87-21.55,12.89-11.84,21.44-37.48,27.48-53.43,10.57-28,31.74-56.2,34.87-86.72.62-5.9-3.43-11.15-5.78-16.18-3.44-7.27-5.47-15.05-9.34-22.19-3.09-5.69-8-10.21-10.37-16.29-4-10.24-1.53-24.52-7.41-33.77-6.43-10.11-17.75-16.56-23-27.48-4.73-9.89-6.82-23.2-13.43-31.71-8-10.27-19.08-16.81-27.16-26.94-7.25-9.14-7.66-22.55-14.76-31.82-4.75-6.24-17.64-8.29-20.22-15.44-2.75-7.54,1-18.49,2.33-25.85C3189.38,626.59,3189.45,615.19,3190.09,604.06Z"/><path class="cls-34" d="M3050.88,809.11c1.1-1.83,2.22-3.65,3.34-5.46,6.48-10.33,13.41-20.33,20.27-30.39,3.76-5.49,6.75-11.5,10.6-16.91l17.32-15.94a70,70,0,0,1,5.79,7.07c.45.6,2.08,1.68,2,2.57-.25,3.34-2.47,7.42-3.8,10.4-2.49,5.59-4.8,11.28-7.41,16.79-7.53,15.9-14.9,32.42-24,47.52-4.08,6.72-8.29,13.65-11.76,20.7-2.91,5.87-5.7,11.72-8.33,17.69-.44-2.78-.83-5.55-1.19-8.33C3052.53,845.5,3051.54,827.6,3050.88,809.11Z"/><path class="cls-35" d="M3115.7,691c-.85,5.75.8,11.09.8,16.72,0,7.81-1.44,14.46-1.46,22.95-.05,14.65,3.29,47.74-4.35,59-1.67,2.47-4.87-12.57-7.53-11.58-3.11,1.17-8.17,5.19-11.14,6.78-5.67,3-16.29-7.65-20.69-9.95-4.64-2.43-15-6.2-14.41-12.68.69-8.21,9.47-18.52,13.36-25.45,5-8.82,8.17-18.38,12.22-27.56l1-.77.11-.07.23-.19.14-.1.23-.17.16-.11.23-.16.13-.11.23-.16.14-.11.23-.15.14-.1.2-.15.18-.13.19-.12.18-.13.16-.12.21-.12.16-.12.18-.12.18-.12.16-.11.21-.12.18-.12,0,0,.29-.19.32-.2.3-.18,0,0,.28-.17,0,0,.28-.16h0l.28-.16h0l.27-.16,0,0,.27-.14.05,0,.25-.14h0l.25-.13,0,0,.25-.13,0,0,.23-.12.14-.07.16-.07.14-.07.13-.07.05,0,.09,0,.07,0,.09,0,0,0,.09,0,0,0,.14-.06.14-.05.59-.25.21-.08.39-.17,1.14-.46.48-.2h0l.75-.32.69-.27.09,0,.09,0,.18-.08.35-.14.2-.08.16-.07.32-.14.07,0,.67-.28.09,0,.11,0,.12-.05.13-.06.21-.09.11,0h.05l.41-.19.39-.17.09,0,.14,0,.18-.08.09,0,.07,0,.12-.05.11,0,.14-.06.14-.06.06,0,.05,0,.23-.09.14-.06,0,0,.43-.19h0l.13-.06.23-.11.07,0,.07,0,.11-.06.16-.07.12-.05.09,0,.11,0,.1,0,.16-.07.13-.07.07,0,0,0,.23-.12.13-.06h.05l.41-.21.05,0,.16-.07.18-.1.07,0,.09,0,.12-.06.13-.07.12-.06.11-.06.09,0,.09,0,.16-.09.16-.07.1,0,.25-.14.14-.07.25-.13.16-.08.39-.21h0l.78-.42h0c.41-.22.8-.43,1.16-.65h0l1.12-.67h0a37.86,37.86,0,0,0,4-2.66h0Z"/><path class="cls-33" d="M3290.24,974.61c-23.62,40.48-56.91,88.86-82.58,116.78-.23.74-.48,1.52-.78,2.34-13.5,40-43.17,106.53-61.55,144.63-29.54,61.15-58.69,122.72-90.42,182.69-51.76,97.73-113.31,190.88-173.78,283.07-22.54,34.4-49.4,76.18-83.29,100.56-6.77,4.86-35.74,16-44.32,13.15-13.52-4.48-9.4-29.31-13.48-39.73-14.39-36.85-25.14-75.25-40-111.83a2.41,2.41,0,0,1,.69-.8c5.62-3.67,15,11.2,17.11,13.45,4.55,4.82,54.55,47.91,58.55,45.46,28.54-17.4,51.85-56.13,70.73-82.5,38.62-54,77.84-108.06,111.93-165.18,21.14-35.46,46.45-68.57,68.07-103.66,28.92-46.93,55.28-96.8,82.83-144.6,19.75-34.31,38.35-69.12,59.31-102.65,7.46-11.91,9.72-27.86,16.91-38.87,9.45-14.46,37.66-25.93,50.63-42C3254.73,1022.66,3273.12,999.14,3290.24,974.61Z"/><path class="cls-36" d="M3105.5,710.52s6.77,29.93,5,40l-165.2,161.93s-20-2-24.69-26.85Z"/><path class="cls-30" d="M2941.49,898.33l29.63-29.05L3110,735.8c.74,5.88,1.08,11.38.51,14.71L2946.73,911A41.63,41.63,0,0,0,2941.49,898.33Z"/><path class="cls-31" d="M1675.57,1097.12c.09,17.77.36,35.15-1.27,52.89-.38,4.14-4.79,17.92-2.58,21.52,4.69,7.53,18,10.63,25.88,13.56,23.31,8.61,47.28,15.36,70.75,23.55,32.62,11.39,65.27,21.56,98.87,29.89,24.31,6,48.91,11,73.34,16.12,5.44,1.14,10.84,2.08,16.28,3.32.75.18,3.72,1.49,4.45.91,1.64-1.31.36-7.91.36-9.6,0-8,.27-16.66,2.13-24.4,3.33-13.64,10.17-26.18,14.29-39.57,4.62-15,2-33.66,2-49.18,0-7.59,3.62-25.11-1.67-31.7-14.79-18.4-42.68-32.09-63.45-42.81-22.22-11.43-41.44-26-66.3-32.48-26.94-7-51.54-4.44-78.65,2-31.72,7.57-59.58,18.12-83.29,40.42"/><path class="cls-33" d="M1673.3,1155.1a43.91,43.91,0,0,0,1-5.1c1.66-17.74,1.37-35.12,1.28-52.87l11.2-25.52c23.68-22.3,51.56-32.84,83.26-40.42,27.11-6.49,51.72-9.05,78.65-2,11.71,3.06,22.2,7.91,32.32,13.4a331,331,0,0,0,30.68,27.38c18.75,14.51,34.3,33.2,54.79,45.52a120,120,0,0,0,14.64,7.35c-.35,5.18-1,10.15-1,13.34,0,12,1.53,25.8.12,38.38-17.7,1.38-32.11-14.32-49.76-18.5-18.22-4.33-39.63,2.69-55.39-5.55-12.24-6.42-24.34-14-36.26-21.06-3.43-2-7.06-3.65-10.28-6-.23-.16-5.83-4.43-6.07-3.75-3.72,10.69,21.72,23.45,27,29,22.36,23.19,53.07,33.49,76.59,55.13,7.6,7,12.1,21.39,16.74,30.46,4.05,7.87,8.31,15.47,12.1,23.37-4.79-1-9.58-1.91-14.37-2.92-2.64-.54-5.28-1.1-7.93-1.66-21.12-15.27-46.73-23.38-69.05-36.49-14-8.23-24-21.56-39.81-27.86-41.53-16.65-88.59-16.94-131.44-29.26C1689.06,1158.41,1681.31,1157.09,1673.3,1155.1Z"/><path class="cls-37" d="M1675.47,1128.76c.27-10.5.14-21,.1-31.63l11.2-25.52c23.68-22.3,51.56-32.84,83.26-40.42,27.11-6.49,51.72-9.05,78.65-2,11.71,3.06,22.2,7.91,32.32,13.4,1.92,1.88,3.82,3.77,5.76,5.63-3.84,3.27-7.66,6.19-11.11,8.72-49.89,36.43-106.08,56-166.33,65.94C1697.92,1124.7,1686.72,1126.93,1675.47,1128.76Z"/><path class="cls-38" d="M1655.32,1150.44c1.3-4.93,80.1-8.06,194.81,39s134.65,71.7,134.65,71.7l5.29,45-332.44-88.87S1654,1155.37,1655.32,1150.44Z"/><path class="cls-38" d="M1436.88,1788.8c0-3.68-.18-7.32-.48-11-8-97.58-15.6-200-17-298-2.08-150.75,187.58-254.94,209.13-256.87,27.43-2.47,79.21-10.28,106.72-4.45,32.42,6.86,64.34,19.14,97.33,24.49,51.3,8.28,101.89,21,153,30.38,27.85,5.1,54.25,15.45,81.83,21.14,20.54,4.22,41.34,7.69,61.36,14,6.07,1.9,15.1,2.87,19.91,7.5a35.86,35.86,0,0,1,5.56,7.14c5.58,2,11.14,4.11,16.59,6.45,41.69,18,83.56,33.39,126.76,47.73,51,16.94,103.35,29.33,154.24,46.31,15.49,5.16,32.44,7.25,47.48,13.15,8,3.12,11.87,11.08,19.65,14.32,9.29,3.88,21.1-1.31,30.84.39,4.79.85,8,5,12.31,7,8.29,3.88,17.51,4.61,25.65,8.83,8.88,4.62,7.21,18.55,8.52,27,2.67,17.31,5.85,34.5,8.64,51.78a83.83,83.83,0,0,1,19.48,16.5c22.67,26.41,30.45,63.45,42.17,95.32,7.87,21.39,16,41.93,16.88,65.06.66,17.6,7.55,47.51-2.36,63.62-4.32,7-13.31,11.61-20.36,15.37-13.11,7-26.56,15-39,23.09-6.38,4.17-13.75,10.3-21.48,11.59-11.17,1.85-21.26-10.31-32.93-8.77-10.36,1.35-19.52,7.53-30.16,8.86-21.82,2.71-44,1.6-65.87,4-60.22,6.61-121.93,8.91-182.59,9.37-13.2.09-26.79,1.79-40.41,3.26.07,35.08-10.52,93.1-15.74,127.7-6.73,44.55,11.65,163.56,25.19,320.59,15.24,176.43,7,422.25,12.72,432.81,2.73,5.05,13.32,22.35,5.95,23.11-38.73,3.88-317.1,141.41-474.84,170.57-132.42,24.49-264.07-141.7-263.27-149.64,2.08-20.31-3.66-62.26-3.66-82.73,0-91.43,16.75-239.54,16.75-331,0-23.18-1.79-46.52-.64-69.65.8-16.43,6.61-32.91,8.51-49.32,6.77-58.47-67.09-266.06-70.22-297.57-4.95-49.48-45.83-79.72-50.62-129.11l-.34-.39a123.41,123.41,0,0,1-1-14.32c-.46-5-.92-10-1.33-14.94Z"/><path class="cls-39" d="M1437.66,1334c45.1,26.46,110.88,49.87,163.42,51.43,2.26.07,24.91,8.9,70.86,13,44.94,4,250.64,82.59,310.65,86.13-47.25.13-326.44-85.51-328.79-81.33-23,40.82-27.87,88.9-23.73,134.59,9.33,102.72,8.83,205.62,15.35,308.59,3.55,55.85,1.49,112.24,5.49,168,1.56,21.87-6.15,41.38-7.8,63.43-2.15,29.19-15,52.28-22.22,80.35-9.49,36.71-1,80.5-8,117.61-5.7,30.47-17.87,60.6-20.82,91.15-3.87,40-7,114.9-6.32,154.12.78,44,5.52,45.32.87,88.58-2.49,23.38-.13,46.93-3.36,70.27-7.78,56.38-6.8,116.64-6.84,173.49,0,3.92-.09,7.91-.19,11.93.16,2,.35,4.36.55,6.88l-.68-.34,0-1.17c0-1,0-1.95.07-2.91l0-2.46c-.25-2.91-.45-5.21-.64-6.47-3.73-28.85-1.37-58.77-1.37-87.82,0-92.88.23-185,4.37-277.84,3.91-87.64,27.18-200.09,27.8-287.84.51-71.81,25.22-71.65,28.56-143.52,3.89-83.17-11.7-185.7-7.74-269.23,3-64.17-9.52-154.61-14.41-218.59-1.24-15.88,24.5-156.55,13.93-169.68-9.7-12-56.42-16.22-69.07-18-27-3.9-79.58-40.85-121-57.14C1438,1323.86,1435.33,1338.62,1437.66,1334Zm544.93,150.57c52,3,75.62,4.1,11.56,0C1993.81,1484.52,1989.62,1484.52,1982.59,1484.55Z"/><path class="cls-40" d="M2133.06,1318.74c-24.64,1.61-29.11,31.17-35.26,48.77a131.76,131.76,0,0,0-4.9,16.45c-6.93,33-17.71,67.61-15.81,101.78.53,9.29,4.35,17,6.13,25.84,4.42,22.1,11.6,42.71,17.55,64.37,6.23,22.74,26.52,93.61,34.94,115.36a135.06,135.06,0,0,0,11.1,21.76c1.35,2.2,3.27,3.94,4.74,6,.8,1.13,2.12,5.05,2,3.65-.92-9.47-7.07-17-9.5-25.93-7.57-27.81-55.9-195.22-56.13-226.09-.25-34.74,7.21-72.12,19.61-104.41,1.9-5,6.8-7.46,10.46-11.06,6.84-6.75,13.39-13.75,20.16-20.56,2.08-2.12,8.67-6.73,9.2-10,.77-4.87-9.27-4.11-9.41-8.17"/><path class="cls-41" d="M2118.09,1409.87c-8.14,19.09-7.55,49.46-9.67,70a379.94,379.94,0,0,0-2.32,39.89c0,.5-.59,8.72.78,8.28,2.66-.83.85-5.51,1.22-8.28,1.14-9,2.26-18.84,4.94-27.61,6-19.46,13.34-38.21,13.95-58.73.55-18.42-3.93-36.81-.89-55.16"/><path class="cls-42" d="M2686.32,1766.33c-.39,7.69-1.81,14.78-5.2,20.29-4.32,7-13.31,11.61-20.36,15.37-13.11,7-26.56,15-39,23.09-6.25,4.08-13.45,10.05-21,11.49-8.4-.94-16.29-8.76-25.08-9h-.5a12.47,12.47,0,0,0-1.81.14l-1.35.21a16.59,16.59,0,0,0-4.67,0c-10.36,1.35-19.52,7.53-30.16,8.86-21.82,2.71-44,1.6-65.87,4-60.22,6.61-121.93,8.91-182.59,9.37-13.2.09-26.79,1.79-40.41,3.26,0,5.16-.2,10.8-.62,16.82-28.23,24.6-8.07,66.29-23.63,99.39-31.35,66.68-92.37,152.79-137.49,207.24-26,31.42-168,206.58-174.22,234.79-.82,3.78,9,3.88,10.57,4.22,33.13,6.68,68.55,1.7,101.37,11.27,52.05,15.14,105.41,18.75,98.59,83.83-1.65,15.76,1.12,37.63-9.79,50.65-17.05,20.37-52.81,33.87-75,48-2.41,1.52-6.39.69-6.91-2.64-.1-.57,44.2-93.81,47.77-105.29.6-1.88,4.07-19-.78-18.58-17.09,1.33-32.83,31.85-45.78,42.18-34.09,27.19-111.94,94.2-137.06,128.62-5.65,7.73,37.07,14.18,21,33.69-22.26,27-144.65,45-154.24,70.18-.82,2.18,4.33,4.49,5.15,5.11,26,19.65,50.57,42.2,81,54,43.31,16.79,86.53,38.25,130.42,57.76-61.53,22.9-122.53,42.86-172.27,52.6-63.8,14.84-138-19.33-196.92-70.39-43.45-36.94-71.57-74.65-71.2-78.34,2.08-20.31-3.66-62.26-3.66-82.73,0-91.43,16.75-239.54,16.75-331,0-23.18-1.79-46.52-.64-69.65.8-16.43,6.61-32.91,8.51-49.32,1.19-10.12-.07-24.67-2.93-42,18.05-39.36,37.16-75.61,42.47-81.33,5.74-6.22,30.4-13,31.53.18,2.79,32.75-35.52,65.06-38.19,95.88-.09.94,33.65,12.19,38.32,13.61,20.44,6.27,54.39,4.75,74.43-2.43,51.78-18.54,134-117,174.22-153,18.19-16.27,39.67-28.06,58.07-44.17,1.46-1.27,35.4-20.68,33.77-15.49-6.56,20.83-66.15,74.81-82.87,90.55-60.54,57-111.39,129.34-168.73,190-27.22,28.85-48.85,62.84-75.91,91.36-24.51,25.82-40.82,50.95-39.68,50.88,9.72-.53,48-1.84,53.36-12,4.41-8.51-12.7-13.12-10.89-18.1,3.84-10.51,67-30.64,77-43,10.25-12.74,3.82-39.49,15.42-54.59,62-80.76,159.48-157.64,229.45-236.05,21.33-23.89,80.61-97.33,106.81-103,5.44-1.19-12.11,29.37-13.18,31.21-11.49,19.6-25.79,38.12-38.88,56.54-37.57,53-108.25,99.33-131.17,162-1.31,3.56,6.91-2.41,10.13-4.17,10.74-5.88,19.73-16.66,27.9-25.82,20.11-22.56,47.43-37.82,68.36-60,78.94-83.51,149.1-94.85,165.27-219.28,7.14-54.91,2.29-63.26,50.23-86.35,11.55-5.55,25.65-16.75,39.08-16.75,14.94,0-13.23,26.92-2.93,27.58,91.64,5.88,180-27.56,270-37.79,36.19-4.13,74.06,20.33,86.42,18.19,16.84-2.89,49.9-28.68,80.17-52.89Zm-631.24,387.9c-55.28,33.73-89.12,100.65-140.35,140.94-33,25.94-64.91,53.06-98.62,77.8-33,24.23-66.92,52.28-103.12,70.77-5.88,3-35.17,15.49-36.43,23.66-1,6.27,40-2.71,41.28-2.91a31.76,31.76,0,0,1,3.36-.3c34.48-2.16,91.78-34.33,126.1-48.31,85.6-34.86,143.85-134.63,194.92-209.26,23.23-33.94,65.12-71.53,64.73-115.62Z"/><path class="cls-43" d="M1761.66,2091.07c31.41-8.56,63.6-39.1,89.19-58,71.54-52.78,138.2-112.54,211.6-162.66,48-32.72,98-63.4,143.83-99.11,9.79-7.64,38.83-32.61,38.6-32.86-1.63-1.68-21.88,11.06-24.3,12.14-30.5,13.6-61,29.78-90.95,44.79-71.21,35.59-153.05,62.58-217.49,110.52-21.87,16.27-39.08,44.66-57,65.13-25.15,28.75-51,58.22-77.89,85.6-3.59,3.67-47.27,49.4-30.06,39.7"/><path class="cls-44" d="M2337.38,1665.75c-75.43,31.55-155.59,51.4-230.68,84.77-17.62,7.85-49.49,13.28-64.43,25.33-2.79,2.27,7.2-.85,10.66-1.86,6.41-1.9,13-2.52,19.49-3.69,23-4.15,44.19-10.19,66.77-15.88,44.41-11.18,88.16-19.69,130-39.13,19.15-8.9,35.51-22.14,55.28-31"/><path class="cls-45" d="M2590.17,1512.66c.32,45.16-10.71,91.47-21.41,135.14-3.85,15.72-11.49,36.33-9.61,52.83,2.06,18.13,8.21,36.16,9.26,54.32.16,2.7,2.89,14.45.23,16.93-3.82,3.58-17-3.72-20.52-5.37-15.54-7.5-41.21-7.59-58.33-9.18-1.71-.16-25.12-3.16-25.23-1.47-.19,2.76,7.55,6.57,9.56,7.78a251.81,251.81,0,0,1,23.91,16.53c31,24.44,42.49,38.32,80.61,46.31,8.72,1.83,26.47,6.86,35.44,2.8,5.88-2.67,8.86-15.77,11.58-20.89a362.88,362.88,0,0,0,24-56.4c8.7-26.19,2.31-42.14-3.59-68-8.67-38.07-23.27-70.17-41.48-104.41"/><path class="cls-38" d="M2588.55,1464.56c4.46.39,8.83-1.79,13.27-.09,6.15,2.36,10.8,9.13,17.55,9.89,7.32.82,18.74-3.22,25.42-.19,3.16,1.43,2.06,6.68,5.86,7.81,4,1.19,5.9-2.09,9.29-3.22,5.63-1.86,12.38,1,16.68,4.5,2.08,1.68-.6,5.62-.94,7.39-1,5.67.91,8.79,1.33,14.78,1.25,18.89,4.27,79,22.24,120.23,28.28,64.94,89.07,179.22,90,181.82,3.89,10.76-9.61,13.6-11.05,16.7-1.28,2.73-7.39,4.09-10.09,4.59-15.36,2.82-10.18-.62-22.4-4-7.87-2.18-17.25,7.38-25.33,7.91-5.65.39-10.37-5.53-15.63-4.77-8,1.15-15.65,14.64-24,17.23-4.09,1.29-8.53-.41-12.61-.57-11.07-.46-24.36-.62-34.25-6.52-3.75-2.22-4.87-7.59-8.85-9.64s-8.15,3.72-11.74.53-4-10.92-5.06-15.26a114.77,114.77,0,0,0-8.08-23.06c-28.6-60-15.62-129.91-15.49-194.26.1-33.71,1.29-68.16,3.34-101.8.26-4,.78-9.25.1-13.22C2587.08,1475.3,2581.52,1470.23,2588.55,1464.56Z"/><path class="cls-46" d="M2588.3,1491a25.17,25.17,0,0,1,1.62,4.73c1.83,8,.21,16.77.66,25,1,17.07.94,34.14,1.72,51.24,1.37,30.43,5.9,60.77,10.18,90.9,2.31,16.13,1.72,35,7.65,50.42,2.35,6.12,7,11,10.43,16.5,9.29,15.07,16.79,31.32,26.7,46,1.49,2.18,6.45,13.13,9.5,13.4,2.65.23,2.1-8.49,2.1-9.64,0-12.23-3.61-24.28-5.83-36.21-4.88-26.14-7.9-52.51-13.75-78.37-4-17.78-10.6-35.59-15-53.44-2.72-11.11-3.75-23.14-5.33-34.43-.52-3.9-1.58-7.64-1.74-11.61-.09-2-2.38-6.68-.45-6,4.16,1.4,5.28,10.37,6.22,13.79,3.5,12.83,7.78,25.77,10.36,38.76,7.1,35.82,19.48,70.22,29.91,105.12,4.76,15.91,7.89,32.34,12.56,48.22,4.14,14,17.14,22.1,28.28,30.47,2,1.47,13.34,8.49,15.88,5.35,5.24-6.49-4.85-18.86-5.65-25.93-.09-1,2-4.45,2-6.45.16-8.56-15.65-42.89-21.28-49.36-7.2-8.29,39.89,75.71,46.89,91.91,5.67,13.17,30.75-4.48,37.61,8.12,1.56,2.82-5.76,8.45-13.61,9.43-7.18.92-14.62-2.59-20.27-4.17-7.87-2.18-17.25,7.38-25.33,7.91-5.65.39-10.37-5.53-15.63-4.77-8,1.15-15.65,14.64-24,17.23-4.09,1.29-8.53-.41-12.61-.57-11.07-.46-24.36-.62-34.25-6.52-3.75-2.22-4.87-7.59-8.85-9.64s-8.15,3.72-11.74.53-4-10.92-5.06-15.26a114.77,114.77,0,0,0-8.08-23.06c-28.6-60-15.62-129.91-15.49-194.26.1-33.71,1.29-68.16,3.34-101.8C2588.11,1493.45,2588.21,1492.26,2588.3,1491Z"/><path class="cls-47" d="M2639.3,1478.19c-4,1.19-10.39,5.55-12.65,9.25-1.54,2.48-1.15,8.86-1.17,11.66-.14,10.05,1.69,20.4,3.11,30.33a148.2,148.2,0,0,0,4.07,19.33c.3,1,.62,2,.92,3,0,.14.62,2.09.68,2.07,1.93-.81.37-4.16.37-6.22a118.72,118.72,0,0,1,1.1-15.65c.69-5.26,1.49-10.7,2.7-15.86,1.62-6.82,3.89-13.29,5.08-20.24,1-5.94,4.51-12.07-.83-17.3a35,35,0,0,0-4-3.1"/><path class="cls-48" d="M1798.42,590.34l.82-.47c4-2.3,7-8.65,11.4-9.68,3.14-.73,7.47,2,10.88,1.75,7.74-.53,16-6,23.69-7.76,12.8-2.88,29.74-.57,42.83-2.41,8.7-1.23,17.15,12.52,24.77,15.75,3.72,1.58,7.91.25,11.76,1.15,5.21,1.2,12.92,6.64,16.82,10.16,5.4,4.89,7.68,13.85,10.51,20.35,9.9,22.69,15.55,54.84-3.89,71.12-1.33,5.28-3.3,10.28-7.16,14.76C1927.1,721,1910,728,1902,749.52c-9.41,25.33-17.1,52.66-20.11,79.58-4.94,44.11-4.87,90.83-17.2,133.64l-69.09,47.83c-8.06,2-103.25,123.64-119.32,128.79-3.78,1.2-128.83-147.94-144.23-269.74-11.67-92.39,84.12-195.81,94.79-201.48,17.26-9.15,33.68-10,51.28-18.47,16.54-7.95,35.81-17.06,53.18-23.44C1756.26,617.07,1773.68,593.9,1798.42,590.34Z"/><path class="cls-49" d="M1790.27,611.07c4.41-.74,8.87-1.42,13.38-2.07.29-.16.57-.31.83-.47,4-2.3,7-8.65,11.41-9.68,3.13-.73,7.46,2,10.86,1.75,7.74-.53,16-6,23.71-7.76,12.79-2.88,23.74-12.2,36.83-14.05,8.72-1.22,17.9,5.5,25.52,8.73,3.72,1.58,7.91.25,11.76,1.15,5.21,1.2,12.92,6.64,16.82,10.16,5.4,4.89,7.68,13.85,10.51,20.35,9.9,22.69,15.55,54.84-3.89,71.12-.22.87-.46,1.74-.73,2.6-2.45,1.51-5.16,3-8.32,4.63-26,13.11-46.76,24.94-72.81,36.14-11.57,5-33,5-44.64,9.75-8.23,3.34-22.64,3.27-32.38,6.63-13.23,4.57-23.77,13.14-37.78,16.36s-29.31,6.78-42.66,12.37c-6.15,2.57-12.56,3.93-18.67,6.14-.72.26-4.43,2.58-4.73,1.2-2.67-12.66,11.07-24.11,18.48-32.73,15.62-18.18,34.76-39.33,42.44-62.47,3.78-11.37-1.46-22.68,1.93-34C1754.67,635.06,1773,623.44,1790.27,611.07Z"/><path class="cls-50" d="M1596.65,1017.73c1.4-4.73,3.68-9.1,5.43-14.21,3.92-11.33,5.62-23.26,7.58-35,1.71-10.25,2.56-20.53,3.65-30.82.58-5.47,0-11.16,3.29-15.91,11.54-16.85,32.58-28.93,48.28-41.73,22.73-18.56,44.15-39.33,66-58.92,15-13.5,23.42-30.91,37.17-45.51,14.58-15.49,32.42-21.92,51.52-28.71,5.83-2.07,15.68-8.59,22-8,0,0,20.83-2.19,29.63,6.64,6.59,6.61,12.82,12.67,18.19,20.37a82,82,0,0,1,4.55,7.33,308.23,308.23,0,0,0-12,55.77c-4.94,44.11-4.88,90.83-17.2,133.64l-69.1,47.82c-8,2-102.94,124.1-119,129.23C1674.5,1140.48,1634.75,1071.74,1596.65,1017.73Z"/><path class="cls-31" d="M1945.05,690c5.77,10.79,13.8,18.56,21.78,27.81,15.72,18.21,36.36,45.3,51.61,66,10.5,14.3,9.23,61.45,15.89,73.28,10,17.73,44.21,44,58.76,58.3,8.13,8,18.69,14.14,21.72,19.88,3.38,6.41,2.88,21.47-.32,27.6-6.82,13.07-24.67,21-31.42,34.14-3.3,6.42,9.06,22.84,9.14,29.51,0,2.81-5.53,16.3-5.79,19.4-.34,3.85,3.32,8.88,4.14,13.86.93,5.83-1.5,11.81-1.94,17.56-.86,11.17,14.29,39.65,8,55.21-14.79,36.32-63.66,29.41-81,27.53-31-3.36-108.15-10.41-134.06-29.34-18.81-13.71-25.66-72.62-38.14-80.53-6.41-4.07-11.18-1.12-17.77-.18-14,2-11.84,2-26-1-13.5-2.87-24.24-13.72-32.82-23.91a342.11,342.11,0,0,1-40.57-60.91c-5.51-10.47-10.72-24.47-9.6-36.54.74-7.87,5.57-9.6,11.2-13.62,8.86-6.35,23.34-12.52,34.26-8.09,12.25,5,23.83,17.34,31.68,27.65,3.19,4.17,15.13,19.11,18.45,19.23,2.59.08,19.3-9.82,20.2-11.5,2.92-5.4.92-33.2,4.51-40,10.76-20.3,10.39-50.92,1.32-71.69-8.66-19.85-3.83-37.51-12-57.59-3.07-7.56-6.69-20.07-3-28,1.42-3,8.2-4.35,11-4.89,7.25-1.41,16-4.82,22.92-7.44C1884.8,721.4,1919,704.17,1945.05,690Z"/><path class="cls-33" d="M1863.05,729.54a114.07,114.07,0,0,1,2.83,16c2.79,35.89-7,103.23,14.93,134.74,8,11.53,25.69,11.82,37.36,18.6,10.18,5.92,14,18.62,16.46,29.47,10,43.53-29.62,96.24,7.24,138.68,26.48,30.46,86.09,39.18,124.27,35.41,5.46-.54,16.67-3.66,26.73-5.26,3.59,12.1,7.53,26.1,3.71,35.44-14.8,36.33-63.66,29.41-81,27.52-31-3.37-108.16-10.39-134.08-29.32-18.79-13.71-25.64-72.64-38.11-80.53-6.43-4.08-11.2-1.14-17.78-.18-14,2-11.84,1.94-26-1.06-13.51-2.86-24.27-13.71-32.84-23.9a342,342,0,0,1-40.55-60.91c-5.52-10.48-10.72-24.46-9.6-36.53.74-7.87,5.55-9.59,11.19-13.63,8.88-6.36,23.35-12.51,34.26-8.08,12.26,5,23.85,17.32,31.69,27.63,3.18,4.18,15.12,19.12,18.44,19.22,2.61.1,19.31-9.8,20.2-11.47,2.91-5.41.93-33.2,4.52-40,10.76-20.29,10.39-50.92,1.32-71.69-8.67-19.85-3.84-37.51-12-57.59-3.09-7.56-6.69-20.07-3-28,1.41-3,8.18-4.35,11-4.89,7.24-1.41,16-4.82,22.92-7.44Q1860,730.73,1863.05,729.54Z"/><path class="cls-31" d="M1806.68,969.92c-2.23-4.8-5.82-12-9.37-14.47-12.45-8.56-28.56-20.34-43.66-23.24-6.38-1.24-13.56-1.93-19.08,2-6.25,4.43,11,7,13.38,7.74,5.6,1.7,41.63,27.2,43.12,32.56,1.65,5.86-26-15.16-24.76-9.24.68,3.34-9.33,12.84,3.35,22.91,3.22,2.57,8.69.12,10,3.89,2.23,6.36-6,12.88-4.89,19.64.49,2.94,3.86,5.28,5.88,7.16,5.83,5.43,15.64,10.27,23.69,11.21,1,.12,2.11-2.84,2.54-3.88,1.8-4.22,3.76-7.89,3.18-12.69-.29-2.59-6.26-3.9-8.18-4.93-6.46-3.48-8.84-9-8.11-16.24a11.79,11.79,0,0,1,1-3.4c4.13-8.69,10.9.67,16.6-3.37C1815.38,982.68,1809,974.93,1806.68,969.92Z"/><path class="cls-51" d="M2090.81,1088.94c3.84,12,19.59,52.4,10.37,65.51-35.66,50.66-89.76,41.37-107,39.51-31-3.39-87.71-29.7-113.62-48.62-18.79-13.71-25.88-77.35-33.62-90.54-16.85-28.74-29.79-70.71-33.78-81-1.06-2.72-9.47-22.93-18.11-39,2.47,2.51,16.09,18,17.23,18.07,2.59.08,19.3-9.82,20.2-11.5a8.26,8.26,0,0,0,.74-2.2c4.83,8.65,15.45,22.77,19.79,29.51,7.26,11.32,98.28,106.63,118.53,100.16,22.78-7.31,13.09-41.35,40.54-48.88,14.16-3.88,29.47-8,43-13.77,8.54-3.63,18.43-5.49,27.63-7.77-.78,4.1,2.49,10.75,5.43,16.84-21.7,6.41-42.94,12.93-59.58,29.15-5.94,5.83-9.28,10.15-9,17.92.66,20,.86,28.6,7.09,32.9C2043.34,1106.92,2079.2,1097.87,2090.81,1088.94Z"/></g></g></svg>